<!-- Copyright © 2000–2024 JetBrains s.r.o. -->
<svg width="16" height="16" viewBox="0 0 16 16" xmlns="http://www.w3.org/2000/svg">
  <path fill="#9aa7b0" d="M6.69 8c0 .46-.37.83-.83.83s-.83-.37-.83-.83.37-.83.83-.83.83.37.83.83M14 8c0 3.31-2.69 6-6 6s-6-2.69-6-6 2.69-6 6-6 6 2.69 6 6M4.55 5.15c.38-.11.76-.19 1.16-.19 1.26 0 2.44.57 3.22 1.56l2.95 3.71c.38-.66.61-1.41.61-2.23 0-2.48-2.02-4.5-4.5-4.5-1.39 0-2.62.65-3.45 1.65Zm6.72 5.92L8.15 7.14a3.1 3.1 0 0 0-2.44-1.18c-.74 0-1.44.27-2 .73-.13.42-.22.85-.22 1.31 0 2.48 2.02 4.5 4.5 4.5 1.29 0 2.45-.56 3.27-1.43Z" opacity=".8"/>
</svg>
