<svg xmlns="http://www.w3.org/2000/svg" width="16" height="16" viewBox="0 0 16 16">
  <title>settings</title>
  <g>
    <g>
      <path d="M1.61,4H3.193l2.2,2.183L6.18,5.41l-2.175-2.2v-1.6l.208-.095A5.435,5.435,0,0,1,6.505,1a5.507,5.507,0,0,1,5.5,5.5,5.336,5.336,0,0,1-.255,1.63l3.673,3.7a2,2,0,0,1-.021,2.829l-.783.766a2.017,2.017,0,0,1-2.828-.013l-3.672-3.66A5.388,5.388,0,0,1,6.505,12,5.506,5.506,0,0,1,1,6.5a5.446,5.446,0,0,1,.5-2.277Z" fill="#f4f4f4"/>
      <path d="M2.413,4.643,5.381,7.592,7.592,5.426l-2.965-3A4.446,4.446,0,0,1,6.5,2,4.5,4.5,0,0,1,11,6.5a4.455,4.455,0,0,1-.42,1.875l4.127,4.158a1,1,0,0,1-.01,1.41l-.782.766a1.018,1.018,0,0,1-1.423-.006L8.361,10.59A4.455,4.455,0,0,1,6.5,11,4.5,4.5,0,0,1,2,6.5,4.454,4.454,0,0,1,2.413,4.643Z" fill="#323232"/>
    </g>
    <rect width="16" height="16" fill="#f0f" opacity="0"/>
  </g>
</svg>
