<svg width="16" height="16" viewBox="0 0 16 16" xmlns="http://www.w3.org/2000/svg">
  <path fill="#40b6e0" d="M2 4h3.001V2H2v2z"/>
  <path fill="#40b6e0" d="M2 6h3.001V4H2v2z" opacity=".75"/>
  <path fill="#9aa7b0" d="M4.207 8.258 4.465 8H2v2.465l2.207-2.207z"/>
  <path fill="#40b6e0" d="M5.001 7.465V6H2v2h2.465l.536-.535z" opacity=".5"/>
  <path fill="#f4af3d" d="M10.57 7.551 8.449 5.43l1.414-1.414 2.121 2.121-1.414 1.414z"/>
  <path fill="#f4af3d" d="M9.156 8.965 7.034 6.844 8.449 5.43l2.121 2.121-1.414 1.414z" opacity=".75"/>
  <path fill="#9aa7b0" d="M7 10h.363L5.621 8.258 3.879 10H7z"/>
  <path fill="#f4af3d" d="m8.121 10 1.035-1.035-2.122-2.121-1.413 1.414L7.363 10h.758z" opacity=".5"/>
  <path fill="#f98b9e" d="M12 14h2v-3h-2v3z"/>
  <path fill="#f98b9e" d="M10 11h2v3h-2v-3z" opacity=".75"/>
  <path fill="#f98b9e" d="M8 14h2v-3H8v3z" opacity=".5"/>
  <path fill="#9aa7b0" d="M3 12.5a.5.5 0 1 1 1 0 .5.5 0 0 1-1 0ZM8 11H3.5c-.827 0-1.5.673-1.5 1.5S2.673 14 3.5 14H8v-3Z"/>
</svg>
