<svg width="16" height="16" viewBox="0 0 16 16" xmlns="http://www.w3.org/2000/svg">
  <path fill="#40b6e0" d="M8 9H4a1 1 0 0 1-1-1V5a1 1 0 0 1 1-1h8a1 1 0 0 1 1 1v2.3l1 1.082V5a2 2 0 0 0-2-2H4a2 2 0 0 0-2 2v4a2 2 0 0 0 2 2h4V9Z"/>
  <path fill="#9aa7b0" d="M12.729 11.559 13 13.847l-.35.148-1.555-1.712L10 13V7l3.979 4.306-1.25.253Zm1.984-.932-3.979-4.305A1 1 0 0 0 9 7v6a1 1 0 0 0 1.547.837l.382-.25.981 1.08a1.003 1.003 0 0 0 1.13.248l.349-.147a1 1 0 0 0 .604-1.038l-.163-1.373.347-.07a1.003 1.003 0 0 0 .536-1.66Z"/>
</svg>
