<svg width="16" height="16" viewBox="0 0 16 16" xmlns="http://www.w3.org/2000/svg">
  <path fill="#6e6e6e" d="M2 12h12v1H2v-1Zm0 2h12v1H2v-1ZM8 1h1v1H8V1ZM4 1h1v1H4V1Zm2 0h1v1H6V1ZM2 1h1v1H2V1Zm8 0h1v1h-1V1Zm2 0h1v1h-1V1ZM3 3h1v1H3V3Zm4 0h1v1H7V3ZM5 3h1v1H5V3Zm4 0h1v1H9V3Zm2 0h1v1h-1V3Zm2 0h1v1h-1V3Z"/>
  <path fill="#389fd6" d="M8 5a2.97 2.97 0 0 0-2.347 1.153L5 5.5v2h2l-.625-.626C6.735 6.353 7.321 6 8 6c.737 0 1.375.405 1.722 1h1.095a2.99 2.99 0 0 0-2.816-2Zm3 3.5H9l.625.626C9.265 9.647 8.679 10 8 10a1.993 1.993 0 0 1-1.722-1H5.183a2.99 2.99 0 0 0 2.816 2 2.97 2.97 0 0 0 2.347-1.153l.653.653v-2Z"/>
</svg>
