<!-- Copyright © 2000–2024 JetBrains s.r.o. -->
<svg width="16" height="16" viewBox="0 0 16 16" xmlns="http://www.w3.org/2000/svg">
  <path fill="none" stroke="#6C707E" stroke-linecap="round" stroke-linejoin="round" d="M8 3v2.63"/>
  <path fill="none" stroke="#6C707E" stroke-linecap="round" d="M6.5 5.25 8 6l1.5-.75"/>
  <path fill="none" stroke="#6C707E" stroke-linecap="round" stroke-linejoin="round" d="m12.33 10.5-2.278-1.315"/>
  <path fill="none" stroke="#6C707E" stroke-linecap="round" d="M11.132 8.076 9.732 9l-.1 1.674"/>
  <path fill="none" stroke="#6C707E" stroke-linecap="round" stroke-linejoin="round" d="m3.67 10.5 2.278-1.315"/>
  <path fill="none" stroke="#6C707E" stroke-linecap="round" d="M6.368 10.674 6.268 9l-1.4-.924m.366 4.678L8 14.351l4-2.31M6.5 2.515l-4 2.31v4.618m11 0V4.825l-4-2.31"/>
  <path fill="#369650" d="M2 16a2 2 0 1 0 0-4 2 2 0 0 0 0 4"/>
</svg>
