<svg xmlns="http://www.w3.org/2000/svg" width="16" height="16" data-name="icons fills"><circle cx="2" cy="14" r="2" fill="#5fb865"/><path fill="#6c707e" d="M6.5 4.75c.155 0 .158.02 1 .441V3a.5.5 0 0 1 1 0v2.191c.842-.421.845-.441 1-.441a.5.5 0 0 1 .224.947L8 6.559l-1.724-.862A.5.5 0 0 1 6.5 4.75Zm-4 5.193a.5.5 0 0 0 .5-.5v-4.33l3.75-2.165A.502.502 0 0 0 7 2.514c0-.344-.3-.5-.5-.5a.504.504 0 0 0-.25.067L2 4.536v4.907a.5.5 0 0 0 .5.5Zm3.318-.106.052.866a.5.5 0 0 0 .499.47c.204 0 .522-.164.5-.53L6.753 8.72 5.145 7.658a.5.5 0 1 0-.55.835l.724.478-1.897 1.095a.502.502 0 0 0-.25.434c0 .344.301.5.501.5a.494.494 0 0 0 .25-.067l1.898-1.096ZM12 11.54a.504.504 0 0 0-.25.067L8 13.773l-3.75-2.166A.491.491 0 0 0 4 11.54a.527.527 0 0 0-.217.06c.502.374.876.899 1.067 1.508L8 14.926l4.25-2.454a.502.502 0 0 0 .25-.434c0-.351-.306-.5-.501-.5Zm-1.317-2.569.724-.478a.5.5 0 1 0-.55-.835L9.249 8.72l-.116 1.923c-.022.365.296.53.5.53a.502.502 0 0 0 .499-.47l.052-.866 1.898 1.096a.504.504 0 0 0 .25.067c.199 0 .501-.156.501-.5a.502.502 0 0 0-.25-.434l-1.897-1.095Zm-.933-6.89a.494.494 0 0 0-.25-.067c-.2 0-.5.156-.5.5 0 .173.09.341.25.434L13 5.113v4.33a.5.5 0 0 0 1 0V4.536L9.75 2.082Z"/></svg>