<svg xmlns="http://www.w3.org/2000/svg" width="16" height="16" data-name="icons fills"><path fill="#6c707e" d="M12.501 12.041c0 .173-.09.341-.25.434l-4.25 2.454-4.25-2.454a.502.502 0 0 1-.25-.434c0-.351.306-.5.501-.5.085 0 .171.022.25.067l3.75 2.166 3.75-2.166a.491.491 0 0 1 .25-.067c.195 0 .501.149.501.5ZM9.75 2.082a.494.494 0 0 0-.25-.067c-.2 0-.5.156-.5.5 0 .173.09.341.25.434L13 5.114v4.33a.5.5 0 0 0 1 0V4.536L9.75 2.082Zm.933 6.89.724-.478a.5.5 0 1 0-.55-.835L9.249 8.721l-.116 1.923c-.022.365.296.53.5.53a.502.502 0 0 0 .499-.47l.052-.866 1.898 1.096a.504.504 0 0 0 .25.067c.199 0 .501-.156.501-.5a.502.502 0 0 0-.25-.434l-1.897-1.095ZM6 5.25a.5.5 0 0 0 .277.448l1.724.862 1.724-.862a.5.5 0 0 0-.224-.947c-.155 0-.158.02-1 .441V3a.5.5 0 0 0-1 0v2.191c-.842-.421-.845-.441-1-.441A.5.5 0 0 0 6 5.249Zm1-2.735c0-.344-.3-.5-.5-.5a.504.504 0 0 0-.25.067L2 4.536v4.907a.5.5 0 0 0 1 0v-4.33l3.75-2.165A.502.502 0 0 0 7 2.514Zm-3.08 8.418 1.898-1.096.052.866a.5.5 0 0 0 .499.47c.204 0 .522-.164.5-.53L6.753 8.72 5.145 7.658a.5.5 0 1 0-.55.835l.724.478-1.897 1.095a.502.502 0 0 0-.25.434c0 .344.301.5.501.5a.494.494 0 0 0 .25-.067Z"/></svg>