<svg width="20" height="20" viewBox="0 0 20 20" fill="none" xmlns="http://www.w3.org/2000/svg">
    <path d="M8.725 2.59302L3 5.89902V11.147" stroke="#6C707E" stroke-width="1.5" stroke-linecap="round" stroke-linejoin="round"/>
    <path d="M11.167 2.53101V5.82501L12.646 6.67901L10 8.23801L7.354 6.67901L8.833 5.82501V2.53101" stroke="#6C707E" stroke-width="1.3" stroke-linecap="round" stroke-linejoin="round"/>
    <path d="M17 12.6749V5.89894L11.272 2.59094" stroke="#6C707E" stroke-width="1.5" stroke-linecap="round" stroke-linejoin="round"/>
    <path d="M15.839 14.819L13.025 13.16L11.538 14.001V10.93L14.225 9.44202L14.209 11.15L17 12.796" stroke="#6C707E" stroke-width="1.3" stroke-linecap="round" stroke-linejoin="round"/>
    <path d="M8.67297 17.424L9.99997 18.191L15.733 14.881" stroke="#6C707E" stroke-width="1.5" stroke-linecap="round" stroke-linejoin="round"/>
    <path d="M5.07898 11.57L5.79098 11.15L5.77498 9.44202L8.46198 10.93V14.001L6.97498 13.16" stroke="#6C707E" stroke-width="1.3" stroke-linecap="round" stroke-linejoin="round"/>
    <path d="M3.5 20C5.433 20 7 18.433 7 16.5C7 14.567 5.433 13 3.5 13C1.567 13 0 14.567 0 16.5C0 18.433 1.567 20 3.5 20Z" fill="#369650"/>
</svg>
