<!-- Copyright © 2000–2024 JetBrains s.r.o. -->
<svg width="20" height="20" viewBox="0 0 20 20" xmlns="http://www.w3.org/2000/svg">
  <path fill="none" stroke="#CED0D6" stroke-linecap="round" stroke-linejoin="round" stroke-width="1.5" d="M8.725 2.593 3 5.899v5.248"/>
  <path fill="none" stroke="#CED0D6" stroke-linecap="round" stroke-linejoin="round" stroke-width="1.3" d="M11.167 2.531v3.294l1.479.854L10 8.238 7.354 6.679l1.479-.854V2.531"/>
  <path fill="none" stroke="#CED0D6" stroke-linecap="round" stroke-linejoin="round" stroke-width="1.5" d="M17 12.675V5.899L11.272 2.59"/>
  <path fill="none" stroke="#CED0D6" stroke-linecap="round" stroke-linejoin="round" stroke-width="1.3" d="m15.839 14.819-2.814-1.659-1.487.841V10.93l2.687-1.488-.016 1.708L17 12.796"/>
  <path fill="none" stroke="#CED0D6" stroke-linecap="round" stroke-linejoin="round" stroke-width="1.5" d="m8.673 17.424 1.327.767 5.733-3.31"/>
  <path fill="none" stroke="#CED0D6" stroke-linecap="round" stroke-linejoin="round" stroke-width="1.3" d="m5.079 11.57.712-.42-.016-1.708 2.687 1.488v3.071l-1.487-.841"/>
  <path fill="#DB5C5C" d="M3.5 13a3.5 3.5 0 1 0 0 7 3.5 3.5 0 0 0 0-7m0 5.25a1.75 1.75 0 1 1 .001-3.501A1.75 1.75 0 0 1 3.5 18.25"/>
</svg>
