<svg xmlns="http://www.w3.org/2000/svg" width="20" height="20" data-name="icons fills"><path fill="#ced0d6" d="m6.121 11.71-.486.287a4.953 4.953 0 0 0-1.778-.461l1.281-.755-.012-1.333a.65.65 0 0 1 .964-.574l2.687 1.488a.651.651 0 0 1 .335.569v3.071a.652.652 0 0 1-.97.566l-.042-.024a5.006 5.006 0 0 0-1.487-1.924l.032-.019a.65.65 0 0 1 .65-.006l.517.292v-1.574l-1.377-.762.005.593a.651.651 0 0 1-.32.566Zm11.254-6.46-5.728-3.308a.694.694 0 0 0-.352-.094c-.384 0-.779.28-.779.683v3.294a.65.65 0 0 0 .325.563l.514.297L10 7.484l-1.355-.799.514-.297a.65.65 0 0 0 .325-.563V2.531c0-.403-.394-.683-.779-.683-.12 0-.24.029-.352.094L2.625 5.25a.75.75 0 0 0-.375.649v5.779A4.964 4.964 0 0 1 3.5 11.5c.086 0 .165.021.25.025V6.332l4.434-2.56V5.45l-1.154.667a.651.651 0 0 0-.005 1.123l2.646 1.559a.65.65 0 0 0 .66 0l2.646-1.559a.652.652 0 0 0-.005-1.123l-1.154-.667V3.772l4.434 2.56v5.267l-1.387-.818.012-1.333a.65.65 0 0 0-.964-.574l-2.687 1.488a.651.651 0 0 0-.335.569v3.071a.652.652 0 0 0 .97.566l1.16-.656 1.432.844-4.451 2.57-1.504-.869c0 .015.004.029.004.044a4.93 4.93 0 0 1-.267 1.537l1.392.804a.751.751 0 0 0 .75 0l5.733-3.311c.252-.145.37-.42.37-.697a.649.649 0 0 0-.308-.574l-2.814-1.659a.65.65 0 0 0-.65-.006l-.517.292v-1.574l1.377-.762-.005.593a.651.651 0 0 0 .32.566l2.791 1.646a.591.591 0 0 0 .307.083c.387 0 .774-.353.774-.765V5.899a.748.748 0 0 0-.375-.649Z"/><circle cx="3.5" cy="16.5" r="3.5" fill="#599e5e"/></svg>