<svg xmlns="http://www.w3.org/2000/svg" width="20" height="20" data-name="icons fills"><path fill="#ced0d6" d="m17.375 5.25-5.728-3.308a.694.694 0 0 0-.352-.094c-.384 0-.779.28-.779.683v3.294a.65.65 0 0 0 .325.563l.514.297L10 7.484l-1.355-.799.514-.297a.65.65 0 0 0 .325-.563V2.531c0-.403-.394-.683-.779-.683-.12 0-.24.029-.352.094L2.625 5.25a.75.75 0 0 0-.375.649v6.776c0 .412.387.765.774.765a.603.603 0 0 0 .307-.083l2.791-1.646a.65.65 0 0 0 .32-.566l-.005-.593 1.377.762v1.574l-.517-.292a.648.648 0 0 0-.65.006l-2.814 1.659a.648.648 0 0 0-.308.574c0 .277.118.552.37.697l5.733 3.311a.751.751 0 0 0 .75 0l5.733-3.311c.252-.145.37-.42.37-.697a.649.649 0 0 0-.308-.574l-2.814-1.659a.65.65 0 0 0-.65-.006l-.517.292v-1.574l1.377-.762-.005.593a.651.651 0 0 0 .32.566l2.791 1.646a.591.591 0 0 0 .307.083c.387 0 .774-.353.774-.765V5.899a.748.748 0 0 0-.375-.649Zm-1.125 6.349-1.387-.818.012-1.333a.65.65 0 0 0-.964-.574l-2.687 1.488a.651.651 0 0 0-.335.569v3.071a.652.652 0 0 0 .97.566l1.16-.656 1.432.844L10 17.326l-4.451-2.57 1.432-.844 1.16.656a.652.652 0 0 0 .97-.566v-3.071a.651.651 0 0 0-.335-.569L6.089 8.874a.65.65 0 0 0-.964.574l.012 1.333-1.387.818V6.332l4.434-2.56V5.45l-1.154.667a.651.651 0 0 0-.005 1.123l2.646 1.559a.65.65 0 0 0 .66 0l2.646-1.559a.652.652 0 0 0-.005-1.123l-1.154-.667V3.772l4.434 2.56v5.267Z"/></svg>