<svg xmlns="http://www.w3.org/2000/svg" width="16" height="16" data-name="Layer 1" viewBox="0 0 16 16">
  <path fill="#252525" d="M1 11h14v5H1zM15 5V2h-1V0H1v3h1v2h13z"/>
  <path fill="#252525" fill-rule="evenodd" d="M5 5v6h2.087L11 8.554V7.446L7.087 5H5z"/>
  <path fill="#c4c4c4" d="M2 12h12v1H2zM2 14h12v1H2zM8 1h1v1H8zM4 1h1v1H4zM6 1h1v1H6zM2 1h1v1H2zM10 1h1v1h-1zM12 1h1v1h-1zM3 3h1v1H3zM7 3h1v1H7zM5 3h1v1H5zM9 3h1v1H9zM11 3h1v1h-1zM13 3h1v1h-1z"/>
  <path fill="#393" fill-rule="evenodd" d="M6 5.5L10 8l-4 2.5v-5z"/>
</svg>
