<svg xmlns="http://www.w3.org/2000/svg" id="Layer_1" x="0" y="0" version="1.1" viewBox="0 0 16 16" xml:space="preserve">
    <path fill="#AFB1B3" d="M2 12h12v1H2zm0 2h12v1H2z"/>
    <path fill="#3592C4" d="M8.4 8.4l1 1c-.3.3-.6.5-1 .5-.8.2-1.6-.2-2.1-.9h-1c.1.4.3.8.7 1.1 1.2 1.1 3 1.1 4.1 0l.9.9V8.4H8.4zM9.7 7h1c-.4-1.1-1.4-1.9-2.6-1.9-.8-.1-1.6.3-2.2.9L5 5.1v2.6h2.6l-1-1c.3-.3.6-.5 1-.6.8-.3 1.7.1 2.1.9z"/>
    <path fill="#AFB1B3" d="M8 1h1v1H8zM4 1h1v1H4zm2 0h1v1H6zM2 1h1v1H2zm8 0h1v1h-1zm2 0h1v1h-1zM3 3h1v1H3zm4 0h1v1H7zM5 3h1v1H5zm4 0h1v1H9zm2 0h1v1h-1zm2 0h1v1h-1z"/>
</svg>