<svg xmlns="http://www.w3.org/2000/svg" width="16" height="16" viewBox="0 0 16 16">
  <title>HotMethod(GrayDark)</title>
  <g>
    <rect width="16" height="16" fill="#ffd3ff" opacity="0"/>
    <g>
      <path d="M6.213,1.145c.233,1.6-.525,2.768-1.4,4.125A8.6,8.6,0,0,0,3,10.044C3,13.7,5.213,15,7.109,15,10.8,15,13,12.146,13,7.363a7.461,7.461,0,0,0-1.169-4.355A6.637,6.637,0,0,0,10.34,1.553a11.9,11.9,0,0,1-.357,2.493A5.4,5.4,0,0,0,8.2.462,3.749,3.749,0,0,0,6.046,0Z" fill="#252525"/>
      <path d="M11.044,3.626C10.887,4.7,10.966,6.042,8.8,7.079,9.483,4.39,8.686,1.765,7.2,1,7.745,4.716,4,6.459,4,10.044,4,12.982,5.586,14,7.109,14,11.79,14,12,8.88,12,7.364A6.319,6.319,0,0,0,11.044,3.626Z" fill="#ed6117"/>
      <path d="M7.281,13.071c-.695,0-1.86-.3-1.86-2.309,0-1.786,1.393-3.669,2.088-4.738a7.755,7.755,0,0,1-.16,4.171,5.018,5.018,0,0,0,2.727-2.327,8.313,8.313,0,0,1-.437,3.4A2.872,2.872,0,0,1,7.281,13.071Z" fill="#292929"/>
    </g>
  </g>
</svg>
