<svg xmlns="http://www.w3.org/2000/svg" width="16" height="16" viewBox="0 0 16 16">
  <title>HotMethod_dark</title>
  <g>
    <rect width="16" height="16" fill="#ffd3ff" opacity="0"/>
    <path d="M11.044,3.626C10.887,4.7,10.966,6.042,8.8,7.079,9.483,4.39,8.686,1.765,7.2,1,7.745,4.716,4,6.459,4,10.044,4,12.982,5.586,14,7.109,14,11.79,14,12,8.88,12,7.364A6.319,6.319,0,0,0,11.044,3.626Zm-1.405,7.64a2.872,2.872,0,0,1-2.358,1.8c-.695,0-1.86-.3-1.86-2.309,0-1.785,1.393-3.669,2.088-4.738a7.755,7.755,0,0,1-.16,4.171,5.018,5.018,0,0,0,2.727-2.327A8.313,8.313,0,0,1,9.639,11.266Z" fill="#f26522" opacity="0.6"/>
  </g>
</svg>
