<svg width="16" height="16" viewBox="0 0 16 16" xmlns="http://www.w3.org/2000/svg">
  <path fill="#EDF3FF" stroke="#3574F0" stroke-linecap="round" stroke-linejoin="round" d="M8.163 11.5H9.5v-2h2V8.163c0-.366.297-.663.663-.663h.674c.366 0 .663.297.663.663V9.5h2v2h-1.337a.663.663 0 0 0-.663.663v.674c0 .366.297.663.663.663H15.5v2h-6v-2H8.163a.663.663 0 0 1-.663-.663v-.674c0-.366.297-.663.663-.663Z"/>
  <path fill="#EBECF0" d="M6 12.837v-.674c0-1.138.883-2.073 2-2.157V9.5C8 8.673 8.673 8 9.5 8h.506c.084-1.117 1.02-2 2.157-2h.674c.522 0 .999.189 1.372.5h.291V6A1.5 1.5 0 0 0 13 4.5H8.192L6.3 2.5H3A1.5 1.5 0 0 0 1.5 4v8A1.5 1.5 0 0 0 3 13.5h3.078l-.003-.13A2.042 2.042 0 0 1 6 12.837Z"/>
  <path fill="none" stroke="#6C707E" stroke-linecap="round" stroke-linejoin="round" d="M14.5 6.087V6A1.5 1.5 0 0 0 13 4.5H8.192L6.3 2.5H3A1.5 1.5 0 0 0 1.5 4v8A1.5 1.5 0 0 0 3 13.5h2.593"/>
</svg>
