<svg width="16" height="16" viewBox="0 0 16 16" xmlns="http://www.w3.org/2000/svg">
  <path fill="#EBECF0" d="M6 8.896c0-.562.306-1.079.798-1.35l3.978-2.189a1.497 1.497 0 0 1 1.444-.002l2.048 1.127.232.003v-.484a1.5 1.5 0 0 0-1.5-1.5H8.192l-1.892-2H3a1.5 1.5 0 0 0-1.5 1.5v8c0 .412.17.781.439 1.051l.198-.169c.235-.52.756-.883 1.363-.883h1.586a1.503 1.503 0 0 1 .915-1.915L6 8.896Z"/>
  <path fill="#EDF3FF" d="m11.5 6.67-4 2.202v1.518c.02.018.042.03.061.05l2 2a1.49 1.49 0 0 1 .168 1.916l1.771.974 4-2.2V8.872l-4-2.201Z"/>
  <path fill="none" stroke="#3574F0" stroke-linecap="round" stroke-linejoin="round" d="m7.5 8.872 4 2.13v4.327m-2-7.558 4 2.165v1.347M3.5 13.5h4m-1-2 2 2-2 2"/>
  <path fill="none" stroke="#6C707E" stroke-linecap="round" stroke-linejoin="round" d="M14.5 6.038V6A1.5 1.5 0 0 0 13 4.5H8.192L6.3 2.5H3A1.5 1.5 0 0 0 1.5 4v8c0 .25.067.482.175.69"/>
  <path fill="#3574F0" d="m8.854 13.146-2-2a.5.5 0 0 0-.707.707l1.146 1.146H3.5a.5.5 0 0 0 0 1h3.793l-1.146 1.146a.5.5 0 0 0 .708.707l2-2a.5.5 0 0 0 0-.707l-.001.001Z"/>
  <path fill="none" stroke="#3574F0" stroke-linecap="round" stroke-linejoin="round" d="m10.171 14.599 1.329.73 4-2.2V8.872l-4-2.201-4 2.2v.906"/>
</svg>
