<svg width="16" height="16" viewBox="0 0 16 16" xmlns="http://www.w3.org/2000/svg">
  <path fill="#43454A" d="M6 13.13V8.872a1.5 1.5 0 0 1 .775-1.313l4.001-2.202a1.497 1.497 0 0 1 1.444-.002l2.036 1.12h.244V6A1.5 1.5 0 0 0 13 4.5H8.192L6.3 2.5H3A1.5 1.5 0 0 0 1.5 4v8A1.5 1.5 0 0 0 3 13.5h3.05a1.474 1.474 0 0 1-.05-.37Z"/>
  <path fill="#25324D" stroke="#548AF7" stroke-linecap="round" stroke-linejoin="round" d="M7.5 13.13V8.871l4 2.13 4-2.13v4.257l-4 2.2-4-2.2Z"/>
  <path fill="#548AF7" stroke="#548AF7" stroke-linecap="round" stroke-linejoin="round" d="M15.5 8.872 11.5 11l-4-2.13 4-2.2 4 2.2Z"/>
  <path fill="none" stroke="#25324D" stroke-linecap="round" stroke-linejoin="round" d="m9.601 8.857 1.9-1.045 1.898 1.045"/>
  <path fill="none" stroke="#CED0D6" stroke-linecap="round" stroke-linejoin="round" d="M14.5 6.038V6A1.5 1.5 0 0 0 13 4.5H8.192L6.3 2.5H3A1.5 1.5 0 0 0 1.5 4v8A1.5 1.5 0 0 0 3 13.5h2.55"/>
</svg>
