<svg width="16" height="16" viewBox="0 0 16 16" xmlns="http://www.w3.org/2000/svg">
  <path fill="#EBECF0" d="M6 11.548a2.865 2.865 0 0 1 .847-2.09l2.612-2.612a2.897 2.897 0 0 1 2.041-.828c.771 0 1.516.302 2.041.828l.959.959V6A1.5 1.5 0 0 0 13 4.5H8.192L6.3 2.5H3A1.5 1.5 0 0 0 1.5 4v8A1.5 1.5 0 0 0 3 13.5h3.812A2.874 2.874 0 0 1 6 11.548Z"/>
  <path fill="#FFF7F7" stroke="#DB3B4B" stroke-miterlimit="10" d="m15.094 12.48-2.614 2.614a1.382 1.382 0 0 1-1.96 0L7.906 12.48a1.385 1.385 0 0 1 0-1.96l2.614-2.614a1.38 1.38 0 0 1 .98-.406c.355 0 .71.135.98.406l2.614 2.614a1.382 1.382 0 0 1 0 1.96Z"/>
  <path fill="#DB3B4B" d="M11.5 10.75a.75.75 0 1 0 0-1.5.75.75 0 0 0 0 1.5Zm0 3a.75.75 0 1 0 0-1.5.75.75 0 0 0 0 1.5Zm1.5-1.5a.75.75 0 1 0 0-1.5.75.75 0 0 0 0 1.5Z"/>
  <path fill="none" stroke="#DB3B4B" stroke-miterlimit="10" stroke-width=".5" d="m13 11.5-3-3m1.5 1.5v3"/>
  <path fill="none" stroke="#6C707E" stroke-linecap="round" stroke-linejoin="round" d="M14.5 7.098V6A1.5 1.5 0 0 0 13 4.5H8.192L6.3 2.5H3A1.5 1.5 0 0 0 1.5 4v8A1.5 1.5 0 0 0 3 13.5h3.167"/>
</svg>
