<svg width="16" height="16" viewBox="0 0 16 16" xmlns="http://www.w3.org/2000/svg">
  <path fill="#43454A" d="M3 12.5c0-.672.267-1.282.699-1.732A1.498 1.498 0 0 1 3 9.5v-2C3 6.673 3.673 6 4.5 6h2c.384 0 .734.145 1 .383A1.494 1.494 0 0 1 8.5 6h2c.827 0 1.5.673 1.5 1.5v2c0 .175-.03.344-.086.5h.586c.297 0 .585.087.832.252l.901.601.267.003V6A1.5 1.5 0 0 0 13 4.5H8.192L6.3 2.5H3A1.5 1.5 0 0 0 1.5 4v8A1.5 1.5 0 0 0 3 13.5v-1Z"/>
  <path fill="#25324D" stroke="#548AF7" stroke-linecap="round" stroke-linejoin="round" d="M6.5 9.5v-2h-2v2h2Zm4 0v-2h-2v2h2Zm2 2h-7a1 1 0 0 0-1 1v2a1 1 0 0 0 1 1h7l3-2-3-2Z"/>
  <path fill="none" stroke="#548AF7" stroke-linecap="round" stroke-miterlimit="10" d="M7.5 12v3"/>
  <path fill="none" stroke="#CED0D6" stroke-linecap="round" stroke-linejoin="round" d="M14.5 10.43V6A1.5 1.5 0 0 0 13 4.5H8.192L6.3 2.5H3A1.5 1.5 0 0 0 1.5 4v8c0 .652.419 1.202 1 1.408"/>
</svg>
