<svg width="16" height="16" viewBox="0 0 16 16" xmlns="http://www.w3.org/2000/svg">
  <path fill="#43454A" d="m9.328 9.5 2.95-2.95L9.45 3.722 6.5 6.672V2.5h-4v9c0 .131.014.263.04.392.011.058.033.111.049.167.02.069.036.139.064.207.027.065.064.125.098.187.029.053.052.107.086.158.146.219.334.407.554.554.051.034.105.057.158.086.062.034.121.071.187.098.067.028.137.044.207.064.056.016.109.038.167.049.129.026.261.04.392.04h9v-4H9.33L9.328 9.5Z"/>
  <path fill="none" stroke="#CED0D6" stroke-linecap="round" stroke-linejoin="round" d="M2.5 7.844V2.5h4v1.344M3 5.5h1.844m.828 2L9.45 3.722l2.828 2.828-.95.95M7.682 6.197 8.985 7.5m4.515 6h-9a2 2 0 1 1 0-4h9v4Z"/>
  <path fill="#CED0D6" d="M4.5 12a.5.5 0 1 0 0-1 .5.5 0 0 0 0 1Z"/>
  <path fill="none" stroke="#CED0D6" stroke-linecap="round" stroke-linejoin="round" d="M7.5 10v3m3-3v3"/>
</svg>
