<svg xmlns="http://www.w3.org/2000/svg" width="16" height="16" viewBox="0 0 16 16">
  <title>FolderGizmos(GrayDark)</title>
  <g>
    <rect width="16" height="16" fill="#ffe3ff" opacity="0"/>
    <g>
      <g>
        <polygon points="1 15 1 3 7.586 3 9.586 1 16 1 16 15 1 15" fill="#252525"/>
        <polygon points="15 14 15 2 10 2 8 4 2 4 2 14 15 14" fill="#e9a755"/>
        <rect x="3" y="6" width="11" height="7" fill="#292929"/>
      </g>
      <g>
        <path d="M3.5,16A3.5,3.5,0,0,1,1.881,9.4a2.5,2.5,0,1,1,3.24,0A3.5,3.5,0,0,1,6.6,10.879a2.5,2.5,0,1,1,0,3.24A3.513,3.513,0,0,1,3.5,16Z" fill="#252525"/>
        <path d="M8.5,11a1.5,1.5,0,0,0-1.408,1H5.95A2.5,2.5,0,0,0,4,10.05V8.908a1.5,1.5,0,1,0-1,0V10.05A2.5,2.5,0,1,0,5.95,13H7.092A1.5,1.5,0,1,0,8.5,11Z" fill="#43c2ff"/>
        <circle cx="3.5" cy="7.5" r="0.5" fill="#292929"/>
        <circle cx="8.5" cy="12.5" r="0.5" fill="#292929"/>
        <circle cx="3.5" cy="12.5" r="1" fill="#292929"/>
      </g>
    </g>
  </g>
</svg>
