<svg xmlns="http://www.w3.org/2000/svg" width="16" height="16" viewBox="0 0 16 16">
  <title>FolderPackageLocal(Gray)</title>
  <g>
    <rect width="16" height="16" fill="#ffe3ff" opacity="0"/>
    <g>
      <g>
        <polygon points="1 15 1 3 7.586 3 9.586 1 16 1 16 15 1 15" fill="#f4f4f4"/>
        <polygon points="15 14 15 2 10 2 8 4 2 4 2 14 15 14" fill="#c7781a"/>
        <rect x="3" y="6" width="11" height="7" fill="#ebebeb"/>
      </g>
      <g>
        <polygon points="13 13.25 13 7.751 8 5 3 7.751 3 13.25 8 16 13 13.25" fill="#f4f4f4"/>
        <g>
          <polygon points="12 12.659 12 8.342 8 6.142 4 8.342 4 12.659 8 14.858 12 12.659" fill="#0095d7"/>
          <polygon points="8 7.283 11 8.933 11 12.067 8 13.717 8 10.5 5.074 8.892 8 7.283" fill="#ebebeb"/>
          <polygon points="9.213 9.844 6.278 8.23 6.797 7.945 9.713 9.549 9.713 11.19 9.213 11.458 9.213 9.844" fill="#0095d7"/>
        </g>
      </g>
      <g>
        <polygon points="8 12.086 4.914 9 2 9 2 10.328 2.672 11 0 11 0 14 2.672 14 2 14.672 2 16 4.914 16 8 12.914 8 12.086" fill="#0095d7"/>
        <polygon points="5.086 12 1 12 1 13 5.086 13 3.086 15 4.5 15 7 12.5 4.5 10 3.086 10 5.086 12" fill="#ebebeb"/>
      </g>
    </g>
  </g>
</svg>
