<svg width="16" height="16" viewBox="0 0 16 16" xmlns="http://www.w3.org/2000/svg">
  <path fill="#40b6e0" d="M8.663 12H10v-2h2V8.663c0-.366.297-.663.663-.663h.674c.366 0 .663.297.663.663V10h2v2h-1.337a.663.663 0 0 0-.663.663v.674c0 .366.297.663.663.663H16v2h-6v-2H8.663A.663.663 0 0 1 8 13.337v-.674c0-.366.297-.663.663-.663Z"/>
  <path fill="#9AA7B0" fill-opacity=".8" d="M14.996 8.586V4H7.985L6.697 2.711A2.796 2.796 0 0 0 4.98 2H1.051A.051.051 0 0 0 1 2.051V13h6v-.337C7 11.746 7.746 11 8.663 11H9V9h2v-.337C11 7.746 11.746 7 12.663 7h.674c.891 0 1.618.706 1.659 1.586Z"/>
</svg>
