<svg width="16" height="16" viewBox="0 0 16 16" xmlns="http://www.w3.org/2000/svg">
  <path fill="#9AA7B0" fill-opacity=".8" d="M8.5 11c.742 0 1.431.333 1.896.879a3.48 3.48 0 0 1 1.482-1.482 2.495 2.495 0 0 1-.879-1.896c0-1.379 1.121-2.5 2.5-2.5.565 0 1.081.195 1.5.512V4.001H7.984L6.696 2.712a2.796 2.796 0 0 0-1.717-.711H1.051A.051.051 0 0 0 1 2.052v10.949h5.051c.232-1.14 1.242-2 2.449-2Z"/>
  <path fill="#40b6e0" d="M14 11.05V9.908A1.496 1.496 0 0 0 13.5 7a1.495 1.495 0 0 0-.5 2.908v1.142A2.504 2.504 0 0 0 11.05 13H9.908A1.496 1.496 0 0 0 7 13.5a1.495 1.495 0 0 0 2.908.5h1.142A2.5 2.5 0 1 0 14 11.05ZM13.5 8c.275 0 .5.225.5.5s-.225.5-.5.5-.5-.225-.5-.5.225-.5.5-.5Zm-5 6c-.275 0-.5-.225-.5-.5s.225-.5.5-.5.5.225.5.5-.225.5-.5.5Zm5 .5a1 1 0 1 1 0-2 1 1 0 0 1 0 2Z"/>
</svg>
