<svg xmlns="http://www.w3.org/2000/svg" width="16" height="16" viewBox="0 0 16 16">
  <title>FolderReadOnly(GrayDark)</title>
  <g>
    <rect width="16" height="16" fill="#ffe3ff" opacity="0"/>
    <g>
      <g>
        <g>
          <path d="M14.512,3.046l-1.56-1.56a1.668,1.668,0,0,0-2.354,0L8.912,3.173l3.914,3.914L14.514,5.4a1.667,1.667,0,0,0,0-2.353Z" fill="#252525"/>
          <path d="M12.585,5.913l-2.5-2.5,1.219-1.22a.664.664,0,0,1,.94,0l1.56,1.56a.664.664,0,0,1,0,.94Z" fill="#c4c4c4"/>
        </g>
        <g>
          <polygon points="1 11.085 1 14.998 4.914 14.998 12.826 7.087 8.912 3.173 1 11.085" fill="#252525"/>
          <path d="M9.249,9.249l2.4-2.4-2.5-2.5-2.4,2.4ZM5.335,8.163,2,11.5V14H4.5l3.335-3.335Z" fill="#c4c4c4"/>
        </g>
      </g>
      <rect x="6.244" y="0.121" width="3.3" height="15.971" transform="translate(-3.42 7.956) rotate(-45)" fill="#252525"/>
      <rect x="7.244" y="1.121" width="1.3" height="13.971" transform="translate(-3.42 7.956) rotate(-45)" fill="#f28366"/>
    </g>
  </g>
</svg>
