<svg width="16" height="16" viewBox="0 0 16 16" xmlns="http://www.w3.org/2000/svg">
  <path fill="#9AA7B0" fill-opacity=".8" d="M6 11.539a2.543 2.543 0 0 1 .75-1.849l2.94-2.94c.483-.483 1.126-.75 1.81-.75s1.326.267 1.81.75L15 8.44V4H7.985L6.697 2.711A2.796 2.796 0 0 0 4.98 2H1.051A.051.051 0 0 0 1 2.051V13h5.494A2.532 2.532 0 0 1 6 11.539Z"/>
  <path fill="#e05555" d="m15.543 10.397-2.94-2.94C12.298 7.152 11.899 7 11.5 7s-.798.152-1.103.457l-.223.223.914.914A.98.98 0 0 1 11.5 8.5a1 1 0 0 1 1 1 .98.98 0 0 1-.094.412l.682.682a.98.98 0 0 1 .412-.094 1 1 0 1 1-1 1 .98.98 0 0 1 .094-.412l-.682-.682c-.02.009-.041.015-.062.023v2.141c.378.142.65.501.65.929a1 1 0 0 1-2 0c0-.428.272-.787.65-.929v-2.141a.994.994 0 0 1-.65-.929.98.98 0 0 1 .094-.412l-.914-.914-2.223 2.223a1.556 1.556 0 0 0 0 2.205l2.94 2.941a1.557 1.557 0 0 0 2.206 0l2.94-2.941a1.557 1.557 0 0 0 0-2.206Z"/>
</svg>
