<svg width="16" height="16.007" viewBox="0 0 16 16.007" xmlns="http://www.w3.org/2000/svg">
  <path fill="#9AA7B0" fill-opacity=".8" d="M7.985 4 6.697 2.711A2.796 2.796 0 0 0 4.98 2H1.051A.051.051 0 0 0 1 2.051V13h1l1-1h2.286v-1.007l.707-.707H7V8.751L12 6l3 1.651V4H7.985Z"/>
  <path fill="#40b6e0" d="m6.7 10.993-.707.707 1.3 1.3H3v1h4.293l-1.3 1.3.707.707L9.207 13.5 6.7 10.993z"/>
  <path fill="#40b6e0" d="m12 7.142-4 2.2v1.537l1.914 1.914v1.414l-.325.325L12 15.858l4-2.199V9.342l-4-2.2Zm3 5.925-3 1.65V11.5L9.074 9.892l1.204-.662 2.935 1.614v1.614l.5-.268v-1.641l-2.916-1.604L12 8.283l3 1.65v3.134Z"/>
</svg>
