<svg xmlns="http://www.w3.org/2000/svg" width="16" height="16" viewBox="0 0 16 16">
  <title>FolderEditor(GrayDark)</title>
  <g>
    <rect width="16" height="16" fill="#ffe3ff" opacity="0"/>
    <g>
      <g>
        <polygon points="1 15 1 3 7.586 3 9.586 1 16 1 16 15 1 15" fill="#252525"/>
        <polygon points="15 14 15 2 10 2 8 4 2 4 2 14 15 14" fill="#e9a755"/>
        <rect x="3" y="6" width="11" height="7" fill="#292929"/>
      </g>
      <g>
        <path d="M13,13.535v-1.07L9.5,10.131V10H2a2,2,0,0,0-2,2v2a2,2,0,0,0,2,2H9.5v-.131Z" fill="#252525"/>
        <path d="M9,11v4l3-2Zm-.8,0v4H2a1,1,0,0,1-1-1V12a1,1,0,0,1,1-1Z" fill="#43c2ff"/>
        <rect x="2" y="12" width="6.2" height="1" fill="#292929"/>
      </g>
    </g>
  </g>
</svg>
