<svg xmlns="http://www.w3.org/2000/svg" width="16" height="16" viewBox="0 0 16 16">
  <title>UnityModule(Gray)</title>
  <g>
    <rect width="16" height="16" fill="#ffe3ff" opacity="0"/>
    <g>
      <path d="M3.5,14A1.5,1.5,0,0,1,2,12.5V9.6a1.5,1.5,0,0,1,.481-1.1A1.5,1.5,0,0,1,2,7.4V4.5A1.5,1.5,0,0,1,3.5,3H5A2,2,0,0,1,7,1H8a2,2,0,0,1,2,2h1.5A1.5,1.5,0,0,1,13,4.5V6a2,2,0,0,1,2,2V9a2,2,0,0,1-2,2v1.5A1.5,1.5,0,0,1,11.5,14Z" fill="#f4f4f4"/>
      <path d="M14,8a1,1,0,0,0-1-1H12V4.5a.5.5,0,0,0-.5-.5H9V3A1,1,0,0,0,8,2H7A1,1,0,0,0,6,3V4H3.5a.5.5,0,0,0-.5.5V7.4a.5.5,0,0,0,.5.5H4.844a.357.357,0,0,1,.356.356v.488a.357.357,0,0,1-.356.356H3.5a.5.5,0,0,0-.5.5v2.9a.5.5,0,0,0,.5.5h8a.5.5,0,0,0,.5-.5V10h1a1,1,0,0,0,1-1Z" fill="#323232"/>
      <path d="M11,8V5H8V3H7V5H4V7H5.031A.969.969,0,0,1,6,7.969V9.031A.969.969,0,0,1,5.031,10H4v2h7V9h2V8Z" fill="#ebebeb"/>
    </g>
  </g>
</svg>
