<svg xmlns="http://www.w3.org/2000/svg" width="16" height="16" viewBox="0 0 16 16">
  <title>FolderDependencies(GrayDark)</title>
  <g>
    <rect width="16" height="16" fill="#ffe3ff" opacity="0"/>
    <g>
      <path d="M13,13.5a1.491,1.491,0,0,1-1.061-.44L8,9.121,4.06,13.06a1.5,1.5,0,0,1-2.121-2.12l5-5a1.5,1.5,0,0,1,2.121,0l5,5A1.5,1.5,0,0,1,13,13.5Z" fill="#252525"/>
      <circle cx="3" cy="12" r="3" fill="#252525"/>
      <circle cx="8" cy="5" r="4" fill="#252525"/>
      <circle cx="13" cy="12" r="3" fill="#252525"/>
      <path d="M13,12.5a.5.5,0,0,1-.353-.147L8,7.707,3.354,12.353a.5.5,0,1,1-.707-.706l5-5a.5.5,0,0,1,.707,0l5,5A.5.5,0,0,1,13,12.5Z" fill="#c4c4c4"/>
      <circle cx="3" cy="12" r="2" fill="#c4c4c4"/>
      <circle cx="13" cy="12" r="2" fill="#c4c4c4"/>
      <circle cx="8" cy="5" r="3" fill="#c4c4c4"/>
      <circle cx="8" cy="5" r="2" fill="#292929"/>
    </g>
  </g>
</svg>
