<svg xmlns="http://www.w3.org/2000/svg" width="16" height="16" viewBox="0 0 16 16">
  <title>FolderPlugins(Gray)</title>
  <g>
    <rect width="16" height="16" fill="#ffe3ff" opacity="0"/>
    <g>
      <g>
        <polygon points="1 15 1 3 7.586 3 9.586 1 16 1 16 15 1 15" fill="#f4f4f4"/>
        <polygon points="15 14 15 2 10 2 8 4 2 4 2 14 15 14" fill="#c7781a"/>
        <rect x="3" y="6" width="11" height="7" fill="#ebebeb"/>
      </g>
      <g>
        <path d="M2.5,16A2.5,2.5,0,0,1,0,13.5v-4A2.5,2.5,0,0,1,2.5,7H8v9Z" fill="#f4f4f4"/>
        <rect x="6" y="8" width="6" height="7" fill="#f4f4f4"/>
        <rect x="7" y="9" width="4" height="5" fill="#0095d7"/>
        <path d="M1,13.5A1.5,1.5,0,0,0,2.5,15H7V8H2.5A1.5,1.5,0,0,0,1,9.5Z" fill="#0095d7"/>
        <rect x="7" y="10" width="3" height="3" fill="#ebebeb"/>
      </g>
    </g>
  </g>
</svg>
