<svg xmlns="http://www.w3.org/2000/svg" width="16" height="16" viewBox="0 0 16 16">
  <title>FolderStreamingAssets(GrayDark)</title>
  <g>
    <rect width="16" height="16" fill="#ffe3ff" opacity="0"/>
    <g>
      <g>
        <polygon points="1 15 1 3 7.586 3 9.586 1 16 1 16 15 1 15" fill="#252525"/>
        <polygon points="15 14 15 2 10 2 8 4 2 4 2 14 15 14" fill="#e9a755"/>
        <rect x="3" y="6" width="11" height="7" fill="#292929"/>
      </g>
      <g>
        <polygon points="9 11.011 3.843 7 0 7 0 16 3.843 16 9 11.989 9 11.011" fill="#252525" fill-rule="evenodd"/>
        <path d="M8,11.5,3.5,15H3V8h.5ZM1,15H2.2V8H1Z" fill="#43c2ff" fill-rule="evenodd"/>
      </g>
    </g>
  </g>
</svg>
