<svg xmlns="http://www.w3.org/2000/svg" width="16" height="16" viewBox="0 0 16 16">
  <title>FolderAssets(GrayDark)</title>
  <g>
    <rect width="16" height="16" fill="#ffe3ff" opacity="0"/>
    <g>
      <g>
        <polygon points="1 15 1 3 7.586 3 9.586 1 16 1 16 15 1 15" fill="#252525"/>
        <polygon points="15 14 15 2 10 2 8 4 2 4 2 14 15 14" fill="#e9a755"/>
        <rect x="3" y="6" width="11" height="7" fill="#292929"/>
      </g>
      <g>
        <polygon points="0 13.25 0 7.751 5 5 10 7.751 10 13.25 5 16 0 13.25" fill="#252525"/>
        <polygon points="1 8.801 1 12.659 5 14.858 5 11 1 8.801" fill="#43c2ff"/>
        <polygon points="9 8.801 5 11 5 14.858 9 12.659 9 8.801" fill="#43c2ff"/>
        <polygon points="8.379 8 5 9.858 1.621 8 1 8.342 1 8.801 5 11 9 8.801 9 8.342 8.379 8" fill="#292929"/>
        <polygon points="5 9.858 8.379 8 5 6.142 1.621 8 5 9.858" fill="#43c2ff"/>
      </g>
    </g>
  </g>
</svg>
