<svg xmlns="http://www.w3.org/2000/svg" width="16" height="16" viewBox="0 0 16 16">
  <title>FolderAssetsAlt(GrayDark)</title>
  <g>
    <rect width="16" height="16" fill="#ffe3ff" opacity="0"/>
    <g>
      <g>
        <polygon points="1 15 1 3 7.586 3 9.586 1 16 1 16 15 1 15" fill="#252525"/>
        <polygon points="15 14 15 2 10 2 8 4 2 4 2 14 15 14" fill="#e9a755"/>
        <rect x="3" y="6" width="11" height="7" fill="#292929"/>
      </g>
      <g>
        <polygon points="4.764 5 0 7.382 0 13.618 4.764 16 5.236 16 10 13.618 10 7.382 5.236 5 4.764 5" fill="#252525"/>
        <polygon points="5 6 1 8 1 13 5 15 9 13 9 8 5 6 5 6" fill="#43c2ff"/>
        <polyline points="5 7.118 8 8.618 8 12.382 5 13.882 2 12.382 2 8.618 5 7.118" fill="#292929"/>
        <polygon points="2.795 8.78 2.5 8.927 2.5 9.75 5 11 7.5 9.75 7.5 8.927 7.205 8.78 5 9.882 2.795 8.78" fill="#43c2ff"/>
      </g>
    </g>
  </g>
</svg>
