<svg xmlns="http://www.w3.org/2000/svg" width="16" height="16" viewBox="0 0 16 16"><title>FolderGit(GrayDark)</title><rect width="16" height="16" fill="#ffe3ff" opacity="0"/><rect width="16" height="16" fill="#ffe3ff" opacity="0"/><polygon points="1 15 1 3 7.586 3 9.586 1 16 1 16 15 1 15" fill="#252525"/><polygon points="15 14 15 2 10 2 8 4 2 4 2 14 15 14" fill="#e9a755"/><rect x="3" y="6" width="11" height="7" fill="#292929"/><path d="M6.561,5.526l3.913,3.913a1.5,1.5,0,0,1,0,2.122L6.561,15.474a1.5,1.5,0,0,1-2.122,0L.526,11.561a1.5,1.5,0,0,1,0-2.122L4.439,5.526a1.5,1.5,0,0,1,2.122,0" fill="#252525"/><path d="M6.247,6.309,9.691,9.753a1.057,1.057,0,0,1,0,1.494L6.247,14.691a1.057,1.057,0,0,1-1.494,0L1.309,11.247a1.057,1.057,0,0,1,0-1.494L4.753,6.309a1.057,1.057,0,0,1,1.494,0" fill="#f28366"/><path d="M7.39,9.541a.9.9,0,0,0-.4.106l-.6-.6a.9.9,0,0,0,.106-.4,1,1,0,0,0-1-1,.9.9,0,0,0-.4.106l-.9-.9-.07.071h0l-.354.354h0l-.07.07.9.9a.9.9,0,0,0-.106.4.973.973,0,0,0,.65.906v1.972a.973.973,0,0,0-.65.906,1,1,0,1,0,2,0,.973.973,0,0,0-.65-.906V9.56L5.9,9.541l.6.6a.9.9,0,0,0-.106.4,1,1,0,1,0,1-1Z" fill="#292929"/></svg>