<svg xmlns="http://www.w3.org/2000/svg" width="16" height="16" viewBox="0 0 16 16">
  <title>FolderModules(Gray)</title>
  <g>
    <rect width="16" height="16" fill="#ffe3ff" opacity="0"/>
    <g>
      <polygon points="1 15 1 3 7.586 3 9.586 1 16 1 16 15 1 15" fill="#f4f4f4"/>
      <polygon points="15 14 15 2 10 2 8 4 2 4 2 14 15 14" fill="#c7781a"/>
      <rect x="3" y="6" width="11" height="7" fill="#ebebeb"/>
    </g>
    <g>
      <path d="M0,16V8H2V7.663A1.665,1.665,0,0,1,3.663,6h.674A1.665,1.665,0,0,1,6,7.663V8H8v2h.337A1.665,1.665,0,0,1,10,11.663v.674A1.665,1.665,0,0,1,8.337,14H8v2Z" fill="#f4f4f4"/>
      <path d="M8.337,11H7V9H5V7.663A.663.663,0,0,0,4.337,7H3.663A.663.663,0,0,0,3,7.663V9H1v2H2.337A.663.663,0,0,1,3,11.663v.674A.663.663,0,0,1,2.337,13H1v2H7V13H8.337A.663.663,0,0,0,9,12.337v-.674A.663.663,0,0,0,8.337,11Z" fill="#0095d7"/>
    </g>
  </g>
</svg>
