<svg xmlns="http://www.w3.org/2000/svg" width="16" height="16" viewBox="0 0 16 16">
  <title>UnityPackages(GrayDark)</title>
  <g>
    <rect width="16" height="16" fill="#ffe3ff" opacity="0"/>
    <g>
      <polygon points="8.248 0 1 3.903 1 12.098 8.248 16 8.752 16 16 12.098 16 3.903 8.752 0 8.248 0" fill="#252525"/>
      <polygon points="8.5 1 2 4.501 2 11.5 8.5 15 15 11.5 15 4.501 8.5 1" fill="#c4c4c4"/>
      <polygon points="3 10.902 3 5.099 8.5 2.136 14 5.099 14 10.902 8.5 13.864 3 10.902" fill="#292929"/>
      <polygon points="11.454 2.591 5 6.066 5 8.961 6 9.5 6 6.664 12.509 3.159 11.454 2.591" fill="#c4c4c4"/>
      <polygon points="13.5 10.604 13.5 5.396 13.419 5.353 8.5 8 8.5 13.296 13.5 10.604" fill="#c4c4c4"/>
    </g>
  </g>
</svg>
