<svg xmlns="http://www.w3.org/2000/svg" width="16" height="16" data-name="icons fills"><path fill="#ced0d6" d="M6.477 1.872 2 4.458v5.169a.5.5 0 0 1-1 0V3.88l4.977-2.873a.494.494 0 0 1 .249-.068c.19 0 .501.149.501.5 0 .173-.09.341-.25.433Zm6.25 10.325a.49.49 0 0 0-.249.068L8 14.85l-4.478-2.585a.495.495 0 0 0-.25-.068c-.192 0-.5.149-.5.5 0 .173.09.341.25.433L7.993 16h.014l4.971-2.87c.16-.092.25-.26.25-.433 0-.351-.311-.5-.501-.5Zm-2.704-11.19a.495.495 0 0 0-.25-.068c-.195 0-.5.151-.5.5 0 .173.09.341.25.433L14 4.458v5.169a.5.5 0 0 0 1 0V3.88l-4.977-2.873ZM11.657 7.08 6.595 4.157a1.05 1.05 0 0 0-.531-.145c-.538 0-1.063.429-1.063 1.065v5.846c0 .639.528 1.065 1.063 1.065.182 0 .365-.048.531-.145l5.062-2.923c.332-.192.531-.536.531-.92s-.199-.728-.531-.92Zm-.5.975-5.062 2.923c-.009.005-.022.014-.044.014-.021 0-.05-.021-.05-.069V5.077c0-.047.029-.069.05-.069.022 0 .035.009.044.014l5.062 2.923c.016.011.029.027.029.055s-.013.044-.029.055Z"/></svg>