<svg xmlns="http://www.w3.org/2000/svg" width="20" height="20" data-name="icons fills"><path fill="#ced0d6" d="M15 7.759c0 .5-.195.971-.548 1.324l-4.763 4.764-3.91.375.375-3.91 4.762-4.763c.355-.354.841-.531 1.326-.531s.97.177 1.325.531l.884.885c.354.355.549.826.549 1.326Zm-3.323 1.979-1.414-1.414-2.668 2.668-.149 1.564 1.563-.15 2.668-2.668ZM13.5 7.759a.374.374 0 0 0-.11-.267l-.883-.883c-.071-.071-.168-.107-.265-.107s-.194.036-.266.108l-.652.652 1.414 1.414.653-.653a.368.368 0 0 0 .109-.265Z"/><path fill="#ced0d6" d="M8.193 2.583 2.75 5.726v6.285a.75.75 0 0 1-1.5 0V4.86l6.193-3.576a.748.748 0 0 1 .374-.101c.285 0 .751.222.751.749a.749.749 0 0 1-.375.65Zm7.625 12.457a.738.738 0 0 0-.374.101L10 18.284l-5.444-3.143a.748.748 0 0 0-.374-.101c-.292 0-.751.224-.751.749 0 .259.134.511.375.65L9.973 20h.054l6.167-3.561a.749.749 0 0 0 .375-.65c0-.517-.453-.749-.751-.749ZM12.557 1.284a.746.746 0 0 0-.374-.101c-.294 0-.751.224-.751.749 0 .259.134.511.375.65l5.443 3.143v6.285a.75.75 0 0 0 1.5 0V4.86l-6.193-3.576Z"/></svg>