<svg xmlns="http://www.w3.org/2000/svg" width="16" height="16" data-name="icons fills"><path fill="#ced0d6" d="M12 6.207c0 .399-.156.776-.439 1.061l-3.81 3.81-3.128.3.3-3.128 3.81-3.81c.284-.283.673-.425 1.062-.425s.776.141 1.06.424l.707.708c.284.284.439.661.439 1.061ZM9.554 7.86 8.14 6.446 5.884 8.702l-.15 1.563 1.564-.149L9.554 7.86ZM11 6.207a.492.492 0 0 0-.147-.354l-.706-.707a.5.5 0 0 0-.354-.143.498.498 0 0 0-.354.144l-.592.592 1.414 1.414.593-.593A.491.491 0 0 0 11 6.206Z"/><path fill="#ced0d6" d="M6.477 1.872 2 4.458v5.169a.5.5 0 0 1-1 0V3.88l4.977-2.873a.494.494 0 0 1 .249-.068c.19 0 .501.149.501.5 0 .173-.09.341-.25.433Zm6.25 10.325a.49.49 0 0 0-.249.068L8 14.85l-4.478-2.585a.495.495 0 0 0-.25-.068c-.192 0-.5.149-.5.5 0 .173.09.341.25.433L7.993 16h.014l4.971-2.87c.16-.092.25-.26.25-.433 0-.351-.311-.5-.501-.5Zm-2.704-11.19a.495.495 0 0 0-.25-.068c-.195 0-.5.151-.5.5 0 .173.09.341.25.433L14 4.458v5.169a.5.5 0 0 0 1 0V3.88l-4.977-2.873Z"/></svg>