<svg xmlns="http://www.w3.org/2000/svg" width="20" height="20" data-name="icons fills"><path fill="#ced0d6" d="M8.136 14.695c-.696 0-1.386-.554-1.386-1.389V6.693c0-.836.693-1.389 1.386-1.389.238 0 .476.063.693.189l5.726 3.306c.435.25.694.699.694 1.201s-.26.951-.694 1.201l-5.726 3.306a1.378 1.378 0 0 1-.693.188ZM8.25 6.89v6.219L13.636 10 8.25 6.891Zm5.562 3.209ZM8.193 2.583 2.75 5.726v6.285a.75.75 0 0 1-1.5 0V4.86l6.193-3.576a.748.748 0 0 1 .374-.101c.285 0 .751.222.751.749a.749.749 0 0 1-.375.65Zm7.625 12.457a.738.738 0 0 0-.374.101L10 18.284l-5.444-3.143a.748.748 0 0 0-.374-.101c-.292 0-.751.224-.751.749 0 .259.134.511.375.65L9.973 20h.054l6.167-3.561a.749.749 0 0 0 .375-.65c0-.517-.453-.749-.751-.749ZM12.557 1.284a.746.746 0 0 0-.374-.101c-.294 0-.751.224-.751.749 0 .259.134.511.375.65l5.443 3.143v6.285a.75.75 0 0 0 1.5 0V4.86l-6.193-3.576Z"/></svg>