<svg xmlns="http://www.w3.org/2000/svg" width="16" height="16" viewBox="0 0 16 16">
  <g>
    <rect width="16" height="16" fill="#ffd3ff" opacity="0"/>
    <g>
      <path d="M9.583,16h.831L16,10.414V9.583L7.586,1.236A4.492,4.492,0,0,0,1.253,7.6Z" fill="#252525"/>
      <path d="M6.9,1.963A3.492,3.492,0,0,0,1.963,6.9L10,15l5-5Z" fill="#c4c4c4"/>
      <path d="M2.46,6.407A2.792,2.792,0,0,1,6.419,2.472L14.008,10,10,14.008Z" fill="#292929"/>
      <path d="M5.5,4.5a1,1,0,1,1-1-1A1,1,0,0,1,5.5,4.5ZM6.5,7,6,7.5,10.5,12l.5-.5Zm3,1L9,8.5,10.5,10l.5-.5Zm-2-2L7,6.5,8.5,8,9,7.5Z" fill="#c4c4c4"/>
    </g>
  </g>
</svg>
