<svg xmlns="http://www.w3.org/2000/svg" width="16" height="16" viewBox="0 0 16 16">
  <title>FileUnity(GrayDark)</title>
  <g>
    <rect width="16" height="16" fill="#ffd3ff" opacity="0"/>
    <g>
      <polygon points="14 6.561 12.591 1 11.674 1 6.704 2.407 6.067 3.571 4.814 3.571 1 7.602 1 8.398 4.814 12.429 6.067 12.429 6.704 13.593 11.674 15 12.591 15 14 9.439 14 9.061 13.42 8 14 6.939 14 6.561" fill="#252525"/>
      <polygon points="13 6.684 11.812 2 7.38 3.255 6.661 4.571 5.245 4.571 2 8 5.245 11.429 6.661 11.429 7.38 12.745 11.812 14 13 9.316 12.281 8 13 6.684" fill="#c4c4c4"/>
      <path d="M6.8,4.752l3.326-.942L8.183,7.357H4.329Zm0,6.5-2.466-2.6H8.183l1.938,3.547Zm4.38.3L9.237,8l1.938-3.547L12.074,8Z" fill="#292929"/>
    </g>
  </g>
</svg>
