<svg xmlns="http://www.w3.org/2000/svg" width="16" height="16">
  <path d="M7.5,5H1.18L0,10.9V12H5L5,11.007a1.028,1.028,0,0,1,.144-.509L7,7.312Z" fill="#252525"/>
  <path d="M4,11H1l.2-1H4.28l-.011.02A1.969,1.969,0,0,0,4,11ZM6.607,6H2L1.8,7H6.025ZM5.443,8H1.6L1.4,9H4.862Z" fill="#c4c4c4"/>
  <path d="M5.992,13a1.984,1.984,0,0,1-1.724-2.98L7.776,3.989a2,2,0,0,1,3.448,0l3.509,6.032A1.986,1.986,0,0,1,13.009,13Z" fill="#252525"/>
  <path d="M8.641,4.492a1,1,0,0,1,1.718,0l3.508,6.031a.98.98,0,0,1,0,.985,1,1,0,0,1-.859.492H5.992a1,1,0,0,1-.859-.492.98.98,0,0,1,0-.985Z" fill="#c4c4c4"/>
</svg>
