<svg xmlns="http://www.w3.org/2000/svg" width="16" height="16" viewBox="0 0 16 16">
  <title>FolderPackageReferenced(GrayDark)</title>
  <g>
    <rect width="16" height="16" fill="#ffe3ff" opacity="0"/>
    <g>
      <g>
        <polygon points="1 15 1 3 7.586 3 9.586 1 16 1 16 15 1 15" fill="#252525"/>
        <polygon points="15 14 15 2 10 2 8 4 2 4 2 14 15 14" fill="#e9a755"/>
        <rect x="3" y="6" width="11" height="7" fill="#292929"/>
      </g>
      <g>
        <polygon points="0 13.25 0 7.751 5 5 10 7.751 10 13.25 5 16 0 13.25" fill="#252525"/>
        <g>
          <polygon points="1 12.659 1 8.342 5 6.142 9 8.342 9 12.659 5 14.858 1 12.659" fill="#43c2ff" fill-rule="evenodd"/>
          <polygon points="5 7.283 2 8.933 2 12.067 5 13.717 5 10.5 7.926 8.892 5 7.283" fill="#292929"/>
          <polygon points="3.787 9.844 6.722 8.23 6.203 7.945 3.287 9.549 3.287 11.19 3.787 11.458 3.787 9.844" fill="#43c2ff" fill-rule="evenodd"/>
        </g>
      </g>
    </g>
  </g>
</svg>
