<svg xmlns="http://www.w3.org/2000/svg" width="12" height="12" viewBox="0 0 12 12">
  <path fill="#AFB1B3" fill-rule="evenodd" d="M10 6.2285L10 9.9995 8 9.9995 8 7.0625 7 7.4785 7 10.9995 11 10.9995 11 5.8125 10 6.2285zM4 8.7285L4 9.9995 2 9.9995 2 9.5625 1 9.9795 1 10.9995 5 10.9995 5 8.3125 4 8.7285zM8 3.2715L8 1.9995 10 1.9995 10 2.4375 11 2.0205 11 .9995 7 .9995 7 3.6875 8 3.2715zM1 6.1875L1 .9995 5 .9995 5 4.5215 4 4.9375 4 1.9995 2 1.9995 2 5.7715 1 6.1875zM0 7.687L.577 9.072 12 4.312 11.424 2.928z"/>
</svg>
