<?xml version="1.0" encoding="utf-8"?>
<!-- Generator: Adobe Illustrator 23.0.1, SVG Export Plug-In . SVG Version: 6.00 Build 0)  -->
<svg version="1.1" xmlns="http://www.w3.org/2000/svg" x="0px" y="0px" width="16px"
	 height="16px" viewBox="0 0 16 16" enable-background="new 0 0 16 16" xml:space="preserve">
<g id="Layer_1">
</g>
<g id="mask">
</g>
<g id="area">
	<rect opacity="0" fill="#F8D2F8" width="16" height="16"/>
</g>
<g id="icons">
	<g>
		<path fill="#AFB1B3" d="M9.5527344,12.5965576L6.666626,11.789856L3.7524414,8.75h4.5544434l1.8143311,3.2780151
			l0.6986084-0.6986694L9.1977539,9.7070312C8.9116211,9.4211426,8.8261719,8.9909668,8.980957,8.6174316
			c0.1119995-0.2704468,0.3355103-0.4691772,0.6028442-0.5603638L9.5522461,8l2.2906494-4.1385498L12.9059448,8h0.2439575
			L14,6.4641113L12.5964355,1L7.3582153,2.4641113L6.5081177,4H4.8346558L1,8l3.8346558,4h1.6734619l0.8500977,1.5358887
			l0.9810791,0.274231L9.5527344,12.5965576z M6.666626,4.210144l3.9309082-1.0986938L8.3068848,7.25H3.7524414L6.666626,4.210144z"
			/>
		<polygon fill="#3592C4" points="16,9 9.9047852,9 12.2340698,11.3292847 9,14.5633545 10.4366455,16 13.6707153,12.7659302
			16,15.0952148 		"/>
	</g>
</g>
</svg>
