<svg xmlns="http://www.w3.org/2000/svg" width="16" height="16" x="0" y="0" version="1.1" viewBox="0 0 16 16" xml:space="preserve">
  <path fill="#AFB1B3" d="M9.553 12.597l-2.886-.807-2.915-3.04h4.555l1.814 3.278.699-.699-1.622-1.622a.997.997 0 01.386-1.65L9.552 8l2.29-4.139L12.907 8h.244L14 6.464 12.596 1 7.358 2.464 6.508 4H4.835L1 8l3.835 4h1.673l.85 1.536.981.274 1.214-1.213zM6.667 4.21l3.93-1.099-2.29 4.139H3.752l2.915-3.04z"/>
  <path fill="#3592C4" d="M16 9H9.905l2.33 2.33L9 14.562 10.437 16l3.234-3.234L16 15.096z"/>
</svg>