<svg xmlns="http://www.w3.org/2000/svg" width="16" height="16" viewBox="0 0 16 16">
  <title>forceRefresh_dark</title>
  <g>
    <g>
      <g>
        <path d="M13.28,7H15V5.855A6.653,6.653,0,0,0,8.6,1,8.9,8.9,0,0,0,5,1.743V0H3.586L1,2.586V8H6.414l3.4-3.4A5.23,5.23,0,0,1,13.28,7Z" fill="#252525"/>
        <path d="M13.811,6H14A5.618,5.618,0,0,0,8.6,2,7.071,7.071,0,0,0,4,3.551V1L2,3V7H6L8,5H5.386A5.081,5.081,0,0,1,8.9,3.5,6.391,6.391,0,0,1,13.811,6Z" fill="#f28366"/>
      </g>
      <g>
        <path d="M2.72,9H1v1.145A6.653,6.653,0,0,0,7.4,15a8.9,8.9,0,0,0,3.6-.743V16h1.414L15,13.414V8H9.586l-3.4,3.4A5.23,5.23,0,0,1,2.72,9Z" fill="#252525"/>
        <path d="M2.189,10H2a5.618,5.618,0,0,0,5.4,4A7.071,7.071,0,0,0,12,12.449V15l2-2V9H10L8,11h2.614A5.081,5.081,0,0,1,7.1,12.5,6.391,6.391,0,0,1,2.189,10Z" fill="#f28366"/>
      </g>
    </g>
    <rect width="16" height="16" fill="#f0f" opacity="0"/>
  </g>
</svg>
