<svg xmlns="http://www.w3.org/2000/svg" width="16" height="16" viewBox="0 0 16 16">
  <title>gc</title>
  <g>
    <g>
      <path d="M12,3H11A2,2,0,0,0,9,1H7A2,2,0,0,0,5,3H4A2,2,0,0,0,2,5V6H14V5A2,2,0,0,0,12,3Z" fill="#f4f4f4"/>
      <path d="M6,15a3,3,0,0,1-3-3V5H13v7a3,3,0,0,1-3,3Z" fill="#f4f4f4"/>
      <path d="M4,6v6a2,2,0,0,0,2,2h4a2,2,0,0,0,2-2V6Z" fill="#323232"/>
      <path d="M7,11.5a.5.5,0,0,1-1,0v-4a.5.5,0,0,1,1,0Zm3,0a.5.5,0,0,1-1,0v-4a.5.5,0,0,1,1,0Z" fill="#ebebeb"/>
      <path d="M12,4H4A1,1,0,0,0,3,5H13A1,1,0,0,0,12,4Z" fill="#323232"/>
      <rect x="3" y="5.5" width="10" height="0.5" fill="#ebebeb"/>
      <path d="M10,3v.5H9V3H7v.5H6V3A1,1,0,0,1,7,2H9A1,1,0,0,1,10,3Z" fill="#323232"/>
      <rect x="3" y="5" width="10" height="0.5" fill="#323232"/>
    </g>
    <rect width="16" height="16" fill="#f0f" opacity="0"/>
  </g>
</svg>
