<svg xmlns="http://www.w3.org/2000/svg" width="16" height="16">
  <path d="M8 2A5.957 5.957 0 0 0 3.768 3.768L2 2V7H7L5.007 5.007A4.2 4.2 0 0 1 8 3.75 4.25 4.25 0 0 1 12.119 7H13.91A6 6 0 0 0 8 2ZM8 12.25A4.25 4.25 0 0 1 3.881 9H2.09A6 6 0 0 0 8 14Z" fill="#afb1b3" fill-rule="evenodd"/>
  <path fill="#afb1b3" d="M16 13.132 16 9.684 13.083 8 13.083 9.347 14.397 10.106 12.5 11.224 10.603 10.106 11.917 9.347 11.917 8 9 9.684 9 13.132 10.167 12.445 10.167 10.894 12.05 12.004 12.05 14.223 10.735 13.464 9.58 14.144 12.5 15.83 15.42 14.144 14.265 13.464 12.95 14.223 12.95 12.004 14.833 10.894 14.833 12.445 16 13.132z"/>
</svg>
