<svg xmlns="http://www.w3.org/2000/svg" width="16" height="16" viewBox="0 0 16 16">
    <path fill="#6e6e6e" d="M14.367 7l-4.491.787L7 11.5l2.876 3.713 4.491.787L16 11.5zm-.457 8.209l-3.646-.639-2.379-3.07 2.379-3.07 3.646-.639 1.345 3.709z"/>
    <path fill="#6e6e6e" d="M11.569 12.065L8.361 11.5l3.208-.565 2.104-2.685-1.125 3.25 1.125 3.25-2.104-2.685zM5.789 11.57A4.2 4.2 0 013.9 8.894l-1.858-.162a6 6 0 005.624 5.261zM4.91 5.156a4.2 4.2 0 016.978 1.263l1.8-.315a6 6 0 00-10.05-2.221L1.993 2.239v5h5z"/>
</svg>
