<svg xmlns="http://www.w3.org/2000/svg" width="16" height="16" viewBox="0 0 16 16">
  <title>toggleSoftWrap</title>
  <g>
    <g>
      <g>
        <rect x="4" y="-2" width="4" height="10" transform="translate(9 -3) rotate(90)" fill="#f4f4f4"/>
        <rect x="2" y="2" width="8" height="2" fill="#323232"/>
      </g>
      <g>
        <rect x="10" y="9" width="4" height="6" transform="translate(24) rotate(90)" fill="#f4f4f4"/>
        <rect x="10" y="11" width="4" height="2" fill="#323232"/>
      </g>
      <g>
        <path d="M11.5,2H10V5h1.5a.5.5,0,0,1,0,1h-7a3.5,3.5,0,0,0,0,7H5v2H6.362L10,11.968v-.936L7.562,9H11.5a3.5,3.5,0,0,0,0-7ZM5,10H4.5a.5.5,0,0,1,0-1H5Z" fill="#f4f4f4"/>
        <path d="M11.5,3H11V4h.5a1.5,1.5,0,0,1,0,3h-7a2.5,2.5,0,0,0,0,5H6v2l3-2.5L6,9v2H4.5a1.5,1.5,0,0,1,0-3h7a2.5,2.5,0,0,0,0-5Z" fill="#00539c"/>
      </g>
    </g>
    <rect width="16" height="16" fill="#f0f" opacity="0"/>
  </g>
</svg>
