<svg xmlns="http://www.w3.org/2000/svg" width="12" height="12" viewBox="0 0 12 12">
  <g fill-rule="evenodd">
    <path fill="#EDA200" d="M4.3291,3.4985 C4.1201,3.3085 4.0001,3.0395 4.0001,2.7565 L4.0001,1.8535 C4.0001,1.4835 4.2111,1.1725 4.5111,0.9995 L1.0001,0.9995 L1.0001,10.9995 L5.0001,10.9995 L5.0001,4.1055 L4.3291,3.4985 Z M8.1501,5.7415 C7.9591,5.9135 7.7191,5.9995 7.4791,5.9995 C7.3111,5.9995 7.1501,5.9425 7.0001,5.8585 L7.0001,10.9995 L11.0001,10.9995 L11.0001,3.1615 L8.1501,5.7415 Z M7.0001,1.4125 L7.0001,0.9995 L8.4131,0.9995 L7.4791,1.8455 L7.0001,1.4125 Z"/>
    <path fill="#AFB1B3" d="M12 0.908L7.479 5 5 2.757 5 1.854 5.998 1.854 7.48 3.194 11.009 0 12 0z"/>
  </g>
</svg>
