<svg xmlns="http://www.w3.org/2000/svg" width="16" height="16" viewBox="0 0 16 16">
  <title>Shader_d</title>
  <g>
    <circle cx="8" cy="8" r="8" fill="#252525"/>
    <circle cx="8" cy="8" r="7" fill="#c4c4c4"/>
    <circle cx="8" cy="8" r="6" fill="#292929"/>
    <path d="M8,14a5.99268,5.99268,0,0,1-5.19073-3H5.4046C5.92352,12.79163,6.8902,14,8,14Zm3-6a10.87613,10.87613,0,0,1-.4046,3h2.59534A5.96408,5.96408,0,0,0,14,8ZM5.4046,5H2.80927A5.96408,5.96408,0,0,0,2,8H5A10.87613,10.87613,0,0,1,5.4046,5Zm5.1908,0h2.59534A5.99268,5.99268,0,0,0,8,2C9.1098,2,10.07648,3.20837,10.5954,5Zm0,6H8v3C9.1098,14,10.07648,12.79163,10.5954,11ZM5,8a10.87613,10.87613,0,0,0,.4046,3H8V8ZM8,5V8h3a10.87613,10.87613,0,0,0-.4046-3ZM5.4046,5H8V2C6.8902,2,5.92352,3.20837,5.4046,5Z" fill="#c4c4c4"/>
    <path d="M8,2a6,6,0,1,0,6,6A6,6,0,0,0,8,2ZM8,13.5A5.5,5.5,0,1,1,13.5,8,5.5,5.5,0,0,1,8,13.5Z" fill="#292929"/>
  </g>
</svg>
