<svg xmlns="http://www.w3.org/2000/svg" width="13" height="13" viewBox="0 0 13 13">
  <title>toolWindowUnityLog_dark</title>
  <g>
    <g>
      <polygon points="12 5.171 10.699 0 9.78 0 5.212 1.305 4.642 2.357 3.518 2.357 0 6.104 0 6.896 3.518 10.643 4.642 10.643 5.212 11.695 9.78 13 10.699 13 12 7.829 12 7.454 11.483 6.5 12 5.546 12 5.171" fill="#252525"/>
      <polygon points="11 5.293 9.92 1 5.891 2.15 5.237 3.357 3.95 3.357 1 6.5 3.95 9.643 5.237 9.643 5.891 10.85 9.92 12 11 7.707 10.346 6.5 11 5.293" fill="#c4c4c4"/>
      <path d="M5.359,3.522l3.024-.863L6.621,5.911h-3.5Zm0,5.956L3.117,7.089h3.5l1.762,3.252Zm3.982.274L7.579,6.5,9.341,3.248,10.158,6.5Z" fill="#292929"/>
    </g>
    <rect width="13" height="13" fill="#f0f" opacity="0"/>
  </g>
</svg>
