<svg xmlns="http://www.w3.org/2000/svg" width="16" height="16" data-name="icons fills"><path fill="#6c707e" d="M11.631 8.076a.5.5 0 0 1-.225.418l-.724.478.247.142c-.545.225-.93.761-.93 1.386 0 .144.027.281.065.413a.497.497 0 0 1-.433.261c-.204 0-.522-.164-.5-.53l.116-1.923 1.608-1.062a.5.5 0 0 1 .775.417ZM13 5.114v3.887h1V4.536L9.75 2.082a.494.494 0 0 0-.25-.067c-.2 0-.5.156-.5.5 0 .173.09.341.25.434L13 5.114ZM6 5.25a.5.5 0 0 0 .277.448l1.724.862 1.724-.862a.5.5 0 0 0-.224-.947c-.155 0-.158.02-1 .441V3a.5.5 0 0 0-1 0v2.191c-.842-.421-.845-.441-1-.441A.5.5 0 0 0 6 5.249Zm1-2.735c0-.344-.3-.5-.5-.5a.504.504 0 0 0-.25.067L2 4.536v4.907a.5.5 0 0 0 1 0v-4.33l3.75-2.165A.502.502 0 0 0 7 2.514ZM11.879 12H11.5c-.121 0-.237-.018-.35-.045L8 13.774l-3.75-2.166a.491.491 0 0 0-.25-.067c-.195 0-.501.149-.501.5 0 .173.09.341.25.434l4.25 2.454 2.25-1.299 1.629-1.629ZM3.92 10.933l1.898-1.096.052.866a.5.5 0 0 0 .499.47c.204 0 .522-.164.5-.53L6.753 8.72 5.145 7.658a.5.5 0 1 0-.55.835l.724.478-1.897 1.095a.502.502 0 0 0-.25.434c0 .344.301.5.501.5a.494.494 0 0 0 .25-.067Z"/><path fill="#3574f0" d="M11.5 10a.5.5 0 0 0 0 1h2.793l-4.146 4.146a.5.5 0 0 0 .708.708l4.146-4.146v2.793a.5.5 0 0 0 1 0v-4.5h-4.5Z"/></svg>