<svg xmlns="http://www.w3.org/2000/svg" width="20" height="20" data-name="icons fills"><path fill="#a8adbd" d="M9.762 18.877c-.045-.016-.095-.012-.137-.037l-5.733-3.311c-.252-.145-.37-.42-.37-.697 0-.239.107-.455.308-.574l2.814-1.659a.65.65 0 0 1 .65-.006l.517.292v-1.574l-1.377-.762.005.593a.651.651 0 0 1-.32.566l-2.791 1.646a.591.591 0 0 1-.307.083c-.387 0-.774-.353-.774-.765V5.899c0-.268.143-.516.375-.649l5.731-3.308a.694.694 0 0 1 .352-.094c.384 0 .779.28.779.683v3.294a.65.65 0 0 1-.325.563l-.514.297L10 7.484l1.355-.799-.514-.297a.65.65 0 0 1-.325-.563V2.531c0-.403.394-.683.779-.683.12 0 .24.029.352.094l5.728 3.308a.75.75 0 0 1 .375.649V9.75h-1.5V6.332l-4.434-2.56V5.45l1.154.667a.651.651 0 0 1 .005 1.123l-2.646 1.559a.65.65 0 0 1-.66 0L7.023 7.24a.652.652 0 0 1 .005-1.123l1.154-.667V3.772L3.75 6.332v5.267l1.387-.818-.012-1.333a.65.65 0 0 1 .964-.574l2.687 1.488a.651.651 0 0 1 .335.569v3.071a.652.652 0 0 1-.97.566l-1.16-.656-1.432.844L10 17.326l1.168-.674-.759.759a2.225 2.225 0 0 0-.647 1.468Zm4.463-10.084a.654.654 0 0 0-.315.081l-2.687 1.488a.651.651 0 0 0-.335.569v3.071a.652.652 0 0 0 .97.566l1.059-.599a2.249 2.249 0 0 1-1.168-1.968 2.252 2.252 0 0 1 2.25-2.25h.873v-.302a.648.648 0 0 0-.648-.655Z"/><path fill="#3369d6" d="M14 11.25a.75.75 0 0 0 0 1.5h3.189l-5.72 5.72a.748.748 0 0 0 .53 1.28.744.744 0 0 0 .53-.22l5.72-5.72v3.189a.75.75 0 0 0 1.5 0v-5.75h-5.75Z"/></svg>