<svg xmlns="http://www.w3.org/2000/svg" width="20" height="20" data-name="icons fills"><path fill="#283829" d="M16.875 8.917c.417.241.625.662.625 1.083s-.208.842-.625 1.083l-11.25 6.495a1.252 1.252 0 0 1-1.875-1.083V3.505a1.252 1.252 0 0 1 1.875-1.083l11.25 6.495Z"/><path fill="#599e5e" d="M5 18.499c-1.005 0-2-.799-2-2.003V3.505c0-1.207.998-2.004 2-2.004.344 0 .687.09 1 .272l11.25 6.495c.626.361 1 1.009 1 1.732s-.374 1.371-1 1.732L6 18.227a1.994 1.994 0 0 1-1 .271Zm.002-15.496c-.189 0-.502.145-.502.502v12.99c0 .357.311.502.503.502a.489.489 0 0 0 .247-.069l11.25-6.495c.226-.13.25-.346.25-.433s-.024-.303-.25-.433L5.25 3.072a.492.492 0 0 0-.248-.069Z"/></svg>