<svg xmlns="http://www.w3.org/2000/svg" width="16" height="16" data-name="icons fills"><path fill="#f2fcf3" d="M13.5 7.134c.333.192.5.529.5.866s-.167.674-.5.866l-9 5.196a1.002 1.002 0 0 1-1.5-.866V2.804a1 1 0 0 1 1.5-.866l9 5.196Z"/><path fill="#5fb865" d="M4 14.699c-.755 0-1.5-.602-1.5-1.502V2.804c0-.907.751-1.502 1.5-1.502.258 0 .515.068.75.203l9 5.196c.47.271.75.757.75 1.299s-.28 1.028-.75 1.299l-9 5.196a1.492 1.492 0 0 1-.75.204Zm.002-12.396c-.191 0-.502.145-.502.501v10.392c0 .354.308.502.502.502a.484.484 0 0 0 .248-.07l9-5.196c.226-.13.25-.346.25-.433s-.024-.303-.25-.433l-9-5.195a.49.49 0 0 0-.248-.069Z"/></svg>