<svg xmlns="http://www.w3.org/2000/svg" width="20" height="20" data-name="icons fills"><path fill="#bd5757" d="M19.902 10.848a.75.75 0 0 1-1.28.53l-1.372-1.372C17.246 14 13.996 17.249 10 17.249a7.234 7.234 0 0 1-3.84-1.107.75.75 0 1 1 .797-1.271 5.731 5.731 0 0 0 3.044.879 5.757 5.757 0 0 0 5.75-5.742l-1.371 1.371a.748.748 0 0 1-1.28-.53c0-.192.073-.384.22-.53l3.182-3.182 3.182 3.182c.146.146.22.338.22.53ZM.318 9.682 3.5 12.864l3.182-3.182a.748.748 0 0 0-.53-1.28.744.744 0 0 0-.53.22L4.251 9.993a5.756 5.756 0 0 1 5.75-5.742c1.073 0 2.125.304 3.044.879a.751.751 0 0 0 .797-1.271 7.225 7.225 0 0 0-3.84-1.107c-3.995 0-7.246 3.249-7.25 7.243L1.38 8.623a.748.748 0 0 0-1.28.53c0 .192.073.384.22.53Z"/></svg>