<svg xmlns="http://www.w3.org/2000/svg" width="16" height="16" data-name="icons fills"><path fill="#e35252" d="M15.831 8.181 13.5 5.85l-2.332 2.332a.5.5 0 0 0 .708.708l1.125-1.125v.236c0 2.757-2.243 5-5 5a4.993 4.993 0 0 1-2.573-.712.5.5 0 1 0-.514.857c.93.559 1.998.854 3.088.854 3.309 0 6-2.691 6-6v-.236l1.124 1.124a.5.5 0 0 0 .708-.708ZM.169 7.819 2.5 10.15l2.332-2.332a.5.5 0 0 0-.708-.708L2.999 8.235v-.236c0-2.757 2.243-5 5-5 .908 0 1.798.246 2.573.712a.5.5 0 1 0 .514-.857A5.994 5.994 0 0 0 7.998 2c-3.309 0-6 2.691-6 6v.236L.874 7.112a.498.498 0 1 0-.705.707Z"/></svg>