<!-- Copyright © 2000–2024 JetBrains s.r.o. -->
<svg width="20" height="20" viewBox="0 0 20 20" xmlns="http://www.w3.org/2000/svg">
  <path fill="none" stroke="#CED0D6" stroke-miterlimit="10" stroke-width="1.5" d="M4 8h12v7c0 1.656-1.344 3-3 3H7c-1.656 0-3-1.344-3-3z"/>
  <path fill="none" stroke="#CED0D6" stroke-linecap="round" stroke-miterlimit="10" stroke-width="1.5" d="M8 10.5v4m4-4v4"/>
  <path fill="none" stroke="#CED0D6" stroke-miterlimit="10" stroke-width="1.5" d="M4.5 5h11A1.5 1.5 0 0 1 17 6.5V8H3V6.5A1.5 1.5 0 0 1 4.5 5Zm4-3h3A1.5 1.5 0 0 1 13 3.5V5H7V3.5A1.5 1.5 0 0 1 8.5 2Z"/>
</svg>
