<svg xmlns="http://www.w3.org/2000/svg" width="20" height="20" data-name="icons fills"><path fill="#a8adbd" d="M8 15.25a.75.75 0 0 1-.75-.75v-4a.75.75 0 0 1 1.5 0v4a.75.75 0 0 1-.75.75Zm4.75-.75v-4a.75.75 0 0 0-1.5 0v4a.75.75 0 0 0 1.5 0Zm5-5.75h-1V15A3.754 3.754 0 0 1 13 18.75H7A3.754 3.754 0 0 1 3.25 15V8.75h-1V6.5A2.252 2.252 0 0 1 4.5 4.25h1.75V3.5A2.252 2.252 0 0 1 8.5 1.25h3a2.252 2.252 0 0 1 2.25 2.25v.75h1.75a2.252 2.252 0 0 1 2.25 2.25v2.25Zm-10-4.5h4.5V3.5a.75.75 0 0 0-.75-.75h-3a.75.75 0 0 0-.75.75v.75Zm-4 3h12.5V6.5a.75.75 0 0 0-.75-.75h-11a.75.75 0 0 0-.75.75v.75Zm11.5 1.5H4.75V15A2.252 2.252 0 0 0 7 17.25h6A2.252 2.252 0 0 0 15.25 15V8.75Z"/></svg>