<svg xmlns="http://www.w3.org/2000/svg" width="16" height="16" data-name="icons fills"><path fill="#ced0d6" d="M5.5 14h-1c-.827 0-1.5-.673-1.5-1.5v-9C3 2.673 3.673 2 4.5 2h1C6.327 2 7 2.673 7 3.5v9c0 .827-.673 1.5-1.5 1.5Zm-1-11a.5.5 0 0 0-.5.5v9a.5.5 0 0 0 .5.5h1a.5.5 0 0 0 .5-.5v-9a.5.5 0 0 0-.5-.5h-1Zm7 11h-1c-.827 0-1.5-.673-1.5-1.5v-9c0-.827.673-1.5 1.5-1.5h1c.827 0 1.5.673 1.5 1.5v9c0 .827-.673 1.5-1.5 1.5Zm-1-11a.5.5 0 0 0-.5.5v9a.5.5 0 0 0 .5.5h1a.5.5 0 0 0 .5-.5v-9a.5.5 0 0 0-.5-.5h-1Z"/></svg>