<svg xmlns="http://www.w3.org/2000/svg" width="20" height="20" data-name="icons fills"><path fill="#ced0d6" d="M14.75 17.75h-1.5c-1.103 0-2-.897-2-2V4.25c0-1.103.897-2 2-2h1.5c1.103 0 2 .897 2 2v11.5c0 1.103-.897 2-2 2Zm-1.5-14a.5.5 0 0 0-.5.5v11.5a.5.5 0 0 0 .5.5h1.5a.5.5 0 0 0 .5-.5V4.25a.5.5 0 0 0-.5-.5h-1.5Zm-6.5 14h-1.5c-1.103 0-2-.897-2-2V4.25c0-1.103.897-2 2-2h1.5c1.103 0 2 .897 2 2v11.5c0 1.103-.897 2-2 2Zm-1.5-14a.5.5 0 0 0-.5.5v11.5a.5.5 0 0 0 .5.5h1.5a.5.5 0 0 0 .5-.5V4.25a.5.5 0 0 0-.5-.5h-1.5Z"/></svg>