<!-- Copyright © 2000–2024 JetBrains s.r.o. -->
<svg width="17" height="16" viewBox="0 0 17 16" xmlns="http://www.w3.org/2000/svg">
  <path fill="none" stroke="#6C707E" stroke-linecap="round" stroke-linejoin="round" d="M2.621 9V8a5.5 5.5 0 0 1 8.5-4.611m-6 9.222A5.5 5.5 0 0 0 13.621 8V7"/>
  <path fill="none" stroke="#6C707E" stroke-linecap="round" d="m.5 7.321 2.121 2.121.265-.265m10.526-2.411.21-.209 2.12 2.121"/>
  <path fill="none" stroke="#6C707E" stroke-linecap="round" stroke-linejoin="round" stroke-width=".7" d="M8.121 5.467v1.151m-.875-.222.875.437.875-.437m1.319 2.871-.996-.576m.629-.647-.816.539-.059.977m-3.145-.293.996-.576m.246.869-.06-.977-.815-.539m-.173 2.266 2 1.154 1.998-1.154M7.121 5.113l-2 1.155v2.309m6 0V6.268L9.123 5.114"/>
</svg>
