<!-- Copyright © 2000–2024 JetBrains s.r.o. -->
<svg width="20" height="20" viewBox="0 0 20 20" xmlns="http://www.w3.org/2000/svg">
  <path fill="none" stroke="#6C707E" stroke-linecap="round" stroke-width="1.5" d="M.848 9.152 3.5 11.804l.882-.882m11.203-1.81.915-.915 2.652 2.652"/>
  <path fill="none" stroke="#6C707E" stroke-linecap="round" stroke-width="1.5" d="M13.442 4.493A6.46 6.46 0 0 0 10 3.5 6.5 6.5 0 0 0 3.5 10v1.5m3.058 4.007A6.46 6.46 0 0 0 10 16.5a6.5 6.5 0 0 0 6.5-6.5V8.5"/>
  <path fill="none" stroke="#6C707E" stroke-linecap="round" stroke-linejoin="round" stroke-width=".7" d="M10 7.467v1.151m-.875-.222.875.437.875-.437m1.319 2.871-.997-.576m.63-.647-.817.539-.058.977m-3.146-.293.997-.576m.245.869-.058-.977-.817-.539M8 12.31l2 1.154 1.998-1.154M9 7.113 7 8.268v2.309m6 0V8.268l-1.999-1.154"/>
</svg>
