<svg xmlns="http://www.w3.org/2000/svg" width="20" height="20" data-name="icons fills"><path fill="#a8adbd" d="M5.238 11.126 3.5 12.864.318 9.682a.748.748 0 0 1 .53-1.28c.192 0 .384.073.53.22L2.75 9.994C2.754 6 6.004 2.751 10 2.751c1.355 0 2.683.383 3.84 1.107a.75.75 0 1 1-.796 1.271A5.731 5.731 0 0 0 10 4.25a5.757 5.757 0 0 0-5.75 5.742l.9-.899v1.484c0 .192.034.375.088.549Zm14.444-.808L16.5 7.136l-1.65 1.65v1.791c0 .133-.028.259-.054.384l.954-.954A5.756 5.756 0 0 1 10 15.749a5.734 5.734 0 0 1-3.044-.879.751.751 0 0 0-.796 1.271A7.225 7.225 0 0 0 10 17.248c3.995 0 7.246-3.249 7.25-7.243l1.372 1.372a.748.748 0 0 0 1.28-.53.744.744 0 0 0-.22-.53Z"/><path fill="#a8adbd" d="M12.349 12.31a.349.349 0 0 1-.175.303l-1.999 1.153a.35.35 0 0 1-.35 0l-1.999-1.153a.351.351 0 0 1-.175-.303c0-.244.214-.35.35-.35a.34.34 0 0 1 .175.048L10 13.06l1.824-1.052a.35.35 0 0 1 .175-.048c.136 0 .35.106.35.35Zm-.674-1.746.345-.227a.352.352 0 0 0-.192-.643.347.347 0 0 0-.193.059l-.816.539a.352.352 0 0 0-.157.271l-.059.977a.35.35 0 0 0 .699.041l.025-.411.693.4a.345.345 0 0 0 .174.047c.139 0 .351-.108.351-.349a.349.349 0 0 0-.175-.303l-.694-.4Zm1.5-2.599-1.999-1.153A.353.353 0 0 0 11 6.764c-.135 0-.349.106-.349.35 0 .121.063.239.175.303l1.823 1.053v2.107a.35.35 0 0 0 .7 0v-2.31a.351.351 0 0 0-.175-.303Zm-4.05.081a.35.35 0 0 0-.157.662l.875.438a.357.357 0 0 0 .314 0l.875-.438a.35.35 0 0 0-.313-.626l-.368.184v-.799a.35.35 0 0 0-.7 0v.799l-.368-.184a.366.366 0 0 0-.156-.036Zm.223-.933c0-.243-.214-.35-.349-.35-.06 0-.12.015-.176.048L6.824 7.964a.35.35 0 0 0-.175.303v2.31a.35.35 0 0 0 .7 0V8.47l1.823-1.053a.351.351 0 0 0 .175-.303ZM7.98 11.569l.693-.4.025.411a.35.35 0 1 0 .699-.041l-.059-.977a.35.35 0 0 0-.157-.271l-.816-.539a.347.347 0 0 0-.193-.059.351.351 0 0 0-.192.643l.345.227-.694.4a.351.351 0 0 0-.175.303c0 .241.211.349.351.349a.345.345 0 0 0 .174-.047Z"/></svg>