<svg xmlns="http://www.w3.org/2000/svg" width="16" height="16" data-name="icons fills"><path fill="#ced0d6" d="M3.71 8.94 2.5 10.15.169 7.819a.5.5 0 0 1 .708-.708l1.124 1.124v-.236c0-3.309 2.691-6 6-6 1.09 0 2.158.295 3.088.854a.501.501 0 0 1-.257.929.49.49 0 0 1-.257-.072 4.993 4.993 0 0 0-2.573-.712c-2.757 0-5 2.243-5 5v.236l.65-.65v.991c0 .128.026.247.06.363Zm12.121-.759L13.5 5.85 12.35 7v1.414l.65-.65V8c0 2.757-2.243 5-5 5a4.993 4.993 0 0 1-2.573-.712.5.5 0 1 0-.514.857c.93.559 1.998.854 3.088.854 3.309 0 6-2.691 6-6v-.236l1.124 1.124a.5.5 0 0 0 .708-.708Z"/><path fill="#ced0d6" d="M10.349 10.31a.349.349 0 0 1-.175.303l-1.999 1.153a.35.35 0 0 1-.35 0l-1.999-1.153a.351.351 0 0 1-.175-.303c0-.244.214-.35.35-.35a.34.34 0 0 1 .175.048L8 11.06l1.824-1.052a.35.35 0 0 1 .175-.048c.136 0 .35.106.35.35Zm-.674-1.746.345-.227a.35.35 0 0 0-.193-.642.354.354 0 0 0-.193.058l-.816.539a.352.352 0 0 0-.157.271l-.059.977a.35.35 0 0 0 .699.041l.025-.411.693.4a.345.345 0 0 0 .174.047c.139 0 .351-.108.351-.349a.349.349 0 0 0-.175-.303l-.694-.4Zm1.5-2.599L9.176 4.812a.35.35 0 0 0-.175-.048c-.139 0-.35.11-.35.35 0 .121.063.239.175.303l1.823 1.053v2.107a.35.35 0 0 0 .7 0v-2.31a.351.351 0 0 0-.175-.303Zm-3.826-.851c0-.24-.211-.35-.35-.35a.34.34 0 0 0-.175.048L4.825 5.965a.35.35 0 0 0-.175.303v2.31a.35.35 0 0 0 .7 0V6.471l1.823-1.053a.351.351 0 0 0 .175-.303Zm-.223.933a.348.348 0 0 0-.158.662l.875.438a.357.357 0 0 0 .314 0l.875-.438a.35.35 0 0 0-.158-.662.362.362 0 0 0-.156.035l-.368.184v-.799a.35.35 0 0 0-.7 0v.799l-.368-.184a.362.362 0 0 0-.156-.035ZM5.981 9.57l.693-.4.025.411a.35.35 0 1 0 .699-.041l-.059-.977a.35.35 0 0 0-.157-.271l-.816-.539a.35.35 0 0 0-.386.584l.345.227-.694.4a.351.351 0 0 0-.175.303c0 .241.211.349.351.349a.345.345 0 0 0 .174-.047Z"/></svg>