<svg xmlns="http://www.w3.org/2000/svg" width="20" height="20" data-name="icons fills"><path fill="#ced0d6" d="M3.279 17.751c-.873 0-2.029-.664-2.029-2.025V4.275c0-.802.453-1.507 1.182-1.84a2.005 2.005 0 0 1 2.164.31l6.616 5.726a2.017 2.017 0 0 1 0 3.058l-6.616 5.726a2.008 2.008 0 0 1-1.317.496ZM3.281 3.75c-.02 0-.531.023-.531.525v11.451c0 .501.51.524.53.524.1 0 .218-.03.335-.129l6.617-5.726c.157-.136.181-.306.181-.395s-.023-.259-.18-.395L3.615 3.88a.497.497 0 0 0-.333-.13Zm13.469 14h-1.5c-1.103 0-2-.897-2-2V4.25c0-1.103.897-2 2-2h1.5c1.103 0 2 .897 2 2v11.5c0 1.103-.897 2-2 2Zm-1.5-14a.5.5 0 0 0-.5.5v11.5a.5.5 0 0 0 .5.5h1.5a.5.5 0 0 0 .5-.5V4.25a.5.5 0 0 0-.5-.5h-1.5Z"/></svg>