<svg xmlns="http://www.w3.org/2000/svg" width="16" height="16" data-name="icons fills"><path fill="#ced0d6" d="M12.5 14h-1c-.827 0-1.5-.673-1.5-1.5v-9c0-.827.673-1.5 1.5-1.5h1c.827 0 1.5.673 1.5 1.5v9c0 .827-.673 1.5-1.5 1.5Zm-1-11a.5.5 0 0 0-.5.5v9a.5.5 0 0 0 .5.5h1a.5.5 0 0 0 .5-.5v-9a.5.5 0 0 0-.5-.5h-1ZM2.508 14c-.653 0-1.505-.496-1.505-1.502V3.502c0-1.006.854-1.503 1.504-1.503.351 0 .697.126.978.369l5.199 4.498a1.5 1.5 0 0 1 0 2.268l-5.199 4.498a1.488 1.488 0 0 1-.977.368Zm.003-10.999c-.11 0-.508.078-.508.501v8.996c0 .42.393.501.507.501.096 0 .21-.028.321-.123L8.03 8.378c.111-.097.172-.23.172-.378s-.061-.281-.172-.378L2.831 3.124a.48.48 0 0 0-.32-.123Z"/></svg>