<svg xmlns="http://www.w3.org/2000/svg" width="16" height="16" viewBox="0 0 16 16">
  <title>Unity_d</title>
  <g>
    <polygon points="15 6.338 13.372 0 12.46 0 6.686 1.613 5.919 3 4.408 3 0 7.598 0 8.402 4.408 13 5.919 13 6.686 14.387 12.46 16 13.372 16 15 9.662 15 9.278 14.293 8 15 6.722 15 6.338" fill="#252525"/>
    <path d="M14,6.46411,12.59644,1,7.3582,2.46411,6.5081,4H4.83465L1,8l3.83465,4H6.5081l.85009,1.53589L12.59644,15,14,9.53589,13.14991,8Zm-7.33339-2.254,3.93094-1.09869L8.30691,7.25H3.75241Zm0,7.57971L3.75241,8.75h4.5545l2.29063,4.13855Zm5.17628.34869L9.55226,8l2.29063-4.13855L12.906,8Z" fill="#c4c4c4"/>
  </g>
</svg>
