<?xml version="1.0" encoding="utf-8"?>
<!-- Generator: Adobe Illustrator 21.1.0, SVG Export Plug-In . SVG Version: 6.00 Build 0)  -->
<svg version="1.1" id="Layer_1" xmlns="http://www.w3.org/2000/svg" xmlns:xlink="http://www.w3.org/1999/xlink" x="0px" y="0px"
	 viewBox="0 0 16 16" enable-background="new 0 0 16 16" xml:space="preserve">
<g>
	<linearGradient id="SVGID_1_" gradientUnits="userSpaceOnUse" x1="7.5" y1="0" x2="7.5" y2="16">
		<stop  offset="0" style="stop-color:#226E6E"/>
		<stop  offset="1" style="stop-color:#12344D"/>
	</linearGradient>
	<polygon fill="url(#SVGID_1_)" points="15,6.3 13.4,0 12.5,0 6.7,1.6 5.9,3 4.4,3 0,7.6 0,8.4 4.4,13 5.9,13 6.7,14.4 12.5,16 
		13.4,16 15,9.7 15,9.3 14.3,8 15,6.7 	"/>
	<linearGradient id="SVGID_2_" gradientUnits="userSpaceOnUse" x1="7.5" y1="1" x2="7.5" y2="15">
		<stop  offset="0" style="stop-color:#DDFFFE"/>
		<stop  offset="1" style="stop-color:#B4D1E3"/>
	</linearGradient>
	<path fill="url(#SVGID_2_)" d="M14,6.5L12.6,1L7.4,2.5L6.5,4H4.8L1,8l3.8,4h1.7l0.9,1.5l5.2,1.5L14,9.5L13.1,8L14,6.5z M6.7,4.2
		l3.9-1.1L8.3,7.2H3.8L6.7,4.2z M6.7,11.8l-2.9-3h4.6l2.3,4.1L6.7,11.8z M11.8,12.1L9.6,8l2.3-4.1L12.9,8L11.8,12.1z"/>
</g>
<g>
</g>
<g>
</g>
<g>
</g>
<g>
</g>
<g>
</g>
<g>
</g>
<g>
</g>
<g>
</g>
<g>
</g>
<g>
</g>
<g>
</g>
<g>
</g>
<g>
</g>
<g>
</g>
<g>
</g>
</svg>
